<?xml version="1.0" encoding="utf-8" standalone="no"?>
<!DOCTYPE svg PUBLIC "-//W3C//DTD SVG 1.1//EN"
  "http://www.w3.org/Graphics/SVG/1.1/DTD/svg11.dtd">
<svg xmlns:xlink="http://www.w3.org/1999/xlink" width="460.8pt" height="345.6pt" viewBox="0 0 460.8 345.6" xmlns="http://www.w3.org/2000/svg" version="1.1">
 <metadata>
  <rdf:RDF xmlns:dc="http://purl.org/dc/elements/1.1/" xmlns:cc="http://creativecommons.org/ns#" xmlns:rdf="http://www.w3.org/1999/02/22-rdf-syntax-ns#">
   <cc:Work>
    <dc:type rdf:resource="http://purl.org/dc/dcmitype/StillImage"/>
    <dc:date>2024-02-25T13:26:39.604214</dc:date>
    <dc:format>image/svg+xml</dc:format>
    <dc:creator>
     <cc:Agent>
      <dc:title>Matplotlib v3.7.2, https://matplotlib.org/</dc:title>
     </cc:Agent>
    </dc:creator>
   </cc:Work>
  </rdf:RDF>
 </metadata>
 <defs>
  <style type="text/css">*{stroke-linejoin: round; stroke-linecap: butt}</style>
 </defs>
 <g id="figure_1">
  <g id="patch_1">
   <path d="M 0 345.6 
L 460.8 345.6 
L 460.8 0 
L 0 0 
z
" style="fill: #ffffff"/>
  </g>
  <g id="axes_1">
   <g id="patch_2">
    <path d="M 57.6 307.584 
L 414.72 307.584 
L 414.72 41.472 
L 57.6 41.472 
z
" style="fill: #ffffff"/>
   </g>
   <g id="PathCollection_1">
    <defs>
     <path id="mf79495bb0e" d="M 0 3 
C 0.795609 3 1.55874 2.683901 2.12132 2.12132 
C 2.683901 1.55874 3 0.795609 3 0 
C 3 -0.795609 2.683901 -1.55874 2.12132 -2.12132 
C 1.55874 -2.683901 0.795609 -3 0 -3 
C -0.795609 -3 -1.55874 -2.683901 -2.12132 -2.12132 
C -2.683901 -1.55874 -3 -0.795609 -3 0 
C -3 0.795609 -2.683901 1.55874 -2.12132 2.12132 
C -1.55874 2.683901 -0.795609 3 0 3 
z
" style="stroke: #0000ff"/>
    </defs>
    <g clip-path="url(#pb43aea5bef)">
     <use xlink:href="#mf79495bb0e" x="230.09596" y="182.636447" style="fill: #0000ff; stroke: #0000ff"/>
     <use xlink:href="#mf79495bb0e" x="240.491457" y="136.995223" style="fill: #0000ff; stroke: #0000ff"/>
     <use xlink:href="#mf79495bb0e" x="283.087643" y="94.943758" style="fill: #0000ff; stroke: #0000ff"/>
     <use xlink:href="#mf79495bb0e" x="302.864444" y="163.821158" style="fill: #0000ff; stroke: #0000ff"/>
     <use xlink:href="#mf79495bb0e" x="131.338731" y="86.747286" style="fill: #0000ff; stroke: #0000ff"/>
     <use xlink:href="#mf79495bb0e" x="135.632523" y="301.696795" style="fill: #0000ff; stroke: #0000ff"/>
     <use xlink:href="#mf79495bb0e" x="305.015237" y="200.072421" style="fill: #0000ff; stroke: #0000ff"/>
     <use xlink:href="#mf79495bb0e" x="283.963539" y="136.995223" style="fill: #0000ff; stroke: #0000ff"/>
     <use xlink:href="#mf79495bb0e" x="332.25861" y="151.791109" style="fill: #0000ff; stroke: #0000ff"/>
     <use xlink:href="#mf79495bb0e" x="76.473604" y="129.986645" style="fill: #0000ff; stroke: #0000ff"/>
    </g>
   </g>
   <g id="PathCollection_2">
    <defs>
     <path id="m0b34a250ec" d="M 0 3 
C 0.795609 3 1.55874 2.683901 2.12132 2.12132 
C 2.683901 1.55874 3 0.795609 3 0 
C 3 -0.795609 2.683901 -1.55874 2.12132 -2.12132 
C 1.55874 -2.683901 0.795609 -3 0 -3 
C -0.795609 -3 -1.55874 -2.683901 -2.12132 -2.12132 
C -2.683901 -1.55874 -3 -0.795609 -3 0 
C -3 0.795609 -2.683901 1.55874 -2.12132 2.12132 
C -1.55874 2.683901 -0.795609 3 0 3 
z
" style="stroke: #ff0000"/>
    </defs>
    <g clip-path="url(#pb43aea5bef)">
     <use xlink:href="#m0b34a250ec" x="406.819422" y="151.791109" style="fill: #ff0000; stroke: #ff0000"/>
     <use xlink:href="#m0b34a250ec" x="175.050947" y="214.84726" style="fill: #ff0000; stroke: #ff0000"/>
     <use xlink:href="#m0b34a250ec" x="275.676219" y="256.965579" style="fill: #ff0000; stroke: #ff0000"/>
     <use xlink:href="#m0b34a250ec" x="266.672711" y="214.84726" style="fill: #ff0000; stroke: #ff0000"/>
     <use xlink:href="#m0b34a250ec" x="277.123211" y="169.23468" style="fill: #ff0000; stroke: #ff0000"/>
     <use xlink:href="#m0b34a250ec" x="215.987784" y="200.072421" style="fill: #ff0000; stroke: #ff0000"/>
     <use xlink:href="#m0b34a250ec" x="240.491457" y="258.297526" style="fill: #ff0000; stroke: #ff0000"/>
     <use xlink:href="#m0b34a250ec" x="194.18424" y="120.174637" style="fill: #ff0000; stroke: #ff0000"/>
     <use xlink:href="#m0b34a250ec" x="161.863692" y="289.431784" style="fill: #ff0000; stroke: #ff0000"/>
     <use xlink:href="#m0b34a250ec" x="196.041743" y="252.636752" style="fill: #ff0000; stroke: #ff0000"/>
    </g>
   </g>
   <g id="matplotlib.axis_1">
    <g id="xtick_1">
     <g id="line2d_1">
      <path d="M 111.587285 307.584 
L 111.587285 41.472 
" clip-path="url(#pb43aea5bef)" style="fill: none; stroke: #808080; stroke-width: 0.8; stroke-linecap: square"/>
     </g>
     <g id="line2d_2">
      <defs>
       <path id="mc8c08ae89b" d="M 0 0 
L 0 3.5 
" style="stroke: #000000; stroke-width: 0.8"/>
      </defs>
      <g>
       <use xlink:href="#mc8c08ae89b" x="111.587285" y="307.584" style="stroke: #000000; stroke-width: 0.8"/>
      </g>
     </g>
     <g id="text_1">
      <!-- 0.1 -->
      <g transform="translate(101.681894 324.321812) scale(0.13 -0.13)">
       <defs>
        <path id="IPAexGothic-30" d="M 2038 4725 
Q 2881 4725 3334 3944 
Q 3694 3325 3694 2344 
Q 3694 1372 3334 741 
Q 2888 -31 2016 -31 
Q 1147 -31 700 741 
Q 341 1372 341 2350 
Q 341 3713 1000 4334 
Q 1419 4725 2038 4725 
z
M 2016 4266 
Q 1516 4266 1228 3759 
Q 934 3247 934 2344 
Q 934 1456 1222 947 
Q 1513 447 2016 447 
Q 2619 447 2909 1153 
Q 3100 1622 3100 2375 
Q 3100 3256 2806 3759 
Q 2509 4266 2016 4266 
z
" transform="scale(0.015625)"/>
        <path id="IPAexGothic-2e" d="M 1184 63 
L 494 63 
L 494 753 
L 1184 753 
L 1184 63 
z
" transform="scale(0.015625)"/>
        <path id="IPAexGothic-31" d="M 2463 63 
L 1900 63 
L 1900 4103 
Q 1372 3922 788 3797 
L 684 4231 
Q 1519 4441 2106 4731 
L 2463 4731 
L 2463 63 
z
" transform="scale(0.015625)"/>
       </defs>
       <use xlink:href="#IPAexGothic-30"/>
       <use xlink:href="#IPAexGothic-2e" x="62.988281"/>
       <use xlink:href="#IPAexGothic-31" x="89.404297"/>
      </g>
     </g>
    </g>
    <g id="xtick_2">
     <g id="line2d_3">
      <path d="M 190.593068 307.584 
L 190.593068 41.472 
" clip-path="url(#pb43aea5bef)" style="fill: none; stroke: #808080; stroke-width: 0.8; stroke-linecap: square"/>
     </g>
     <g id="line2d_4">
      <g>
       <use xlink:href="#mc8c08ae89b" x="190.593068" y="307.584" style="stroke: #000000; stroke-width: 0.8"/>
      </g>
     </g>
     <g id="text_2">
      <!-- 0.2 -->
      <g transform="translate(180.687677 324.321812) scale(0.13 -0.13)">
       <defs>
        <path id="IPAexGothic-32" d="M 3659 63 
L 447 63 
L 447 594 
Q 825 1475 1894 2203 
L 2072 2322 
Q 2619 2697 2791 2906 
Q 2988 3153 2988 3444 
Q 2988 3772 2756 4003 
Q 2500 4259 2084 4259 
Q 1250 4259 991 3328 
L 497 3506 
Q 853 4725 2116 4725 
Q 2806 4725 3216 4316 
Q 3575 3947 3575 3425 
Q 3575 3038 3344 2722 
Q 3131 2416 2366 1938 
L 2231 1856 
Q 1256 1253 978 569 
L 3659 569 
L 3659 63 
z
" transform="scale(0.015625)"/>
       </defs>
       <use xlink:href="#IPAexGothic-30"/>
       <use xlink:href="#IPAexGothic-2e" x="62.988281"/>
       <use xlink:href="#IPAexGothic-32" x="89.404297"/>
      </g>
     </g>
    </g>
    <g id="xtick_3">
     <g id="line2d_5">
      <path d="M 269.598851 307.584 
L 269.598851 41.472 
" clip-path="url(#pb43aea5bef)" style="fill: none; stroke: #808080; stroke-width: 0.8; stroke-linecap: square"/>
     </g>
     <g id="line2d_6">
      <g>
       <use xlink:href="#mc8c08ae89b" x="269.598851" y="307.584" style="stroke: #000000; stroke-width: 0.8"/>
      </g>
     </g>
     <g id="text_3">
      <!-- 0.3 -->
      <g transform="translate(259.693461 324.321812) scale(0.13 -0.13)">
       <defs>
        <path id="IPAexGothic-33" d="M 2381 2419 
Q 3506 2216 3506 1278 
Q 3506 716 3128 356 
Q 2709 -31 1944 -31 
Q 797 -31 288 881 
L 756 1131 
Q 1109 441 1938 441 
Q 2425 441 2694 691 
Q 2950 928 2950 1291 
Q 2950 1719 2566 1978 
Q 2216 2213 1644 2213 
L 1363 2213 
L 1363 2669 
L 1656 2669 
Q 2231 2669 2534 2888 
Q 2859 3119 2859 3509 
Q 2859 3934 2494 4138 
Q 2259 4278 1931 4278 
Q 1238 4278 903 3578 
L 434 3803 
Q 897 4725 1938 4725 
Q 2597 4725 3006 4394 
Q 3416 4069 3416 3534 
Q 3416 3028 3019 2706 
Q 2763 2500 2381 2444 
L 2381 2419 
z
" transform="scale(0.015625)"/>
       </defs>
       <use xlink:href="#IPAexGothic-30"/>
       <use xlink:href="#IPAexGothic-2e" x="62.988281"/>
       <use xlink:href="#IPAexGothic-33" x="89.404297"/>
      </g>
     </g>
    </g>
    <g id="xtick_4">
     <g id="line2d_7">
      <path d="M 348.604634 307.584 
L 348.604634 41.472 
" clip-path="url(#pb43aea5bef)" style="fill: none; stroke: #808080; stroke-width: 0.8; stroke-linecap: square"/>
     </g>
     <g id="line2d_8">
      <g>
       <use xlink:href="#mc8c08ae89b" x="348.604634" y="307.584" style="stroke: #000000; stroke-width: 0.8"/>
      </g>
     </g>
     <g id="text_4">
      <!-- 0.4 -->
      <g transform="translate(338.699244 324.321812) scale(0.13 -0.13)">
       <defs>
        <path id="IPAexGothic-34" d="M 3813 1159 
L 3059 1159 
L 3059 63 
L 2547 63 
L 2547 1159 
L 197 1159 
L 197 1672 
L 2456 4678 
L 3059 4678 
L 3059 1634 
L 3813 1634 
L 3813 1159 
z
M 2578 4109 
L 2559 4109 
Q 2278 3656 2003 3284 
L 759 1634 
L 2547 1634 
L 2547 3144 
Q 2547 3481 2578 4109 
z
" transform="scale(0.015625)"/>
       </defs>
       <use xlink:href="#IPAexGothic-30"/>
       <use xlink:href="#IPAexGothic-2e" x="62.988281"/>
       <use xlink:href="#IPAexGothic-34" x="89.404297"/>
      </g>
     </g>
    </g>
    <g id="xtick_5">
     <g id="line2d_9">
      <path d="M 64.183815 307.584 
L 64.183815 41.472 
" clip-path="url(#pb43aea5bef)" style="fill: none; stroke-dasharray: 0.8,1.32; stroke-dashoffset: 0; stroke: #d3d3d3; stroke-width: 0.8"/>
     </g>
     <g id="line2d_10">
      <defs>
       <path id="m5c2fcb6314" d="M 0 0 
L 0 2 
" style="stroke: #000000; stroke-width: 0.6"/>
      </defs>
      <g>
       <use xlink:href="#m5c2fcb6314" x="64.183815" y="307.584" style="stroke: #000000; stroke-width: 0.6"/>
      </g>
     </g>
    </g>
    <g id="xtick_6">
     <g id="line2d_11">
      <path d="M 79.984972 307.584 
L 79.984972 41.472 
" clip-path="url(#pb43aea5bef)" style="fill: none; stroke-dasharray: 0.8,1.32; stroke-dashoffset: 0; stroke: #d3d3d3; stroke-width: 0.8"/>
     </g>
     <g id="line2d_12">
      <g>
       <use xlink:href="#m5c2fcb6314" x="79.984972" y="307.584" style="stroke: #000000; stroke-width: 0.6"/>
      </g>
     </g>
    </g>
    <g id="xtick_7">
     <g id="line2d_13">
      <path d="M 95.786128 307.584 
L 95.786128 41.472 
" clip-path="url(#pb43aea5bef)" style="fill: none; stroke-dasharray: 0.8,1.32; stroke-dashoffset: 0; stroke: #d3d3d3; stroke-width: 0.8"/>
     </g>
     <g id="line2d_14">
      <g>
       <use xlink:href="#m5c2fcb6314" x="95.786128" y="307.584" style="stroke: #000000; stroke-width: 0.6"/>
      </g>
     </g>
    </g>
    <g id="xtick_8">
     <g id="line2d_15">
      <path d="M 127.388442 307.584 
L 127.388442 41.472 
" clip-path="url(#pb43aea5bef)" style="fill: none; stroke-dasharray: 0.8,1.32; stroke-dashoffset: 0; stroke: #d3d3d3; stroke-width: 0.8"/>
     </g>
     <g id="line2d_16">
      <g>
       <use xlink:href="#m5c2fcb6314" x="127.388442" y="307.584" style="stroke: #000000; stroke-width: 0.6"/>
      </g>
     </g>
    </g>
    <g id="xtick_9">
     <g id="line2d_17">
      <path d="M 143.189598 307.584 
L 143.189598 41.472 
" clip-path="url(#pb43aea5bef)" style="fill: none; stroke-dasharray: 0.8,1.32; stroke-dashoffset: 0; stroke: #d3d3d3; stroke-width: 0.8"/>
     </g>
     <g id="line2d_18">
      <g>
       <use xlink:href="#m5c2fcb6314" x="143.189598" y="307.584" style="stroke: #000000; stroke-width: 0.6"/>
      </g>
     </g>
    </g>
    <g id="xtick_10">
     <g id="line2d_19">
      <path d="M 158.990755 307.584 
L 158.990755 41.472 
" clip-path="url(#pb43aea5bef)" style="fill: none; stroke-dasharray: 0.8,1.32; stroke-dashoffset: 0; stroke: #d3d3d3; stroke-width: 0.8"/>
     </g>
     <g id="line2d_20">
      <g>
       <use xlink:href="#m5c2fcb6314" x="158.990755" y="307.584" style="stroke: #000000; stroke-width: 0.6"/>
      </g>
     </g>
    </g>
    <g id="xtick_11">
     <g id="line2d_21">
      <path d="M 174.791912 307.584 
L 174.791912 41.472 
" clip-path="url(#pb43aea5bef)" style="fill: none; stroke-dasharray: 0.8,1.32; stroke-dashoffset: 0; stroke: #d3d3d3; stroke-width: 0.8"/>
     </g>
     <g id="line2d_22">
      <g>
       <use xlink:href="#m5c2fcb6314" x="174.791912" y="307.584" style="stroke: #000000; stroke-width: 0.6"/>
      </g>
     </g>
    </g>
    <g id="xtick_12">
     <g id="line2d_23">
      <path d="M 206.394225 307.584 
L 206.394225 41.472 
" clip-path="url(#pb43aea5bef)" style="fill: none; stroke-dasharray: 0.8,1.32; stroke-dashoffset: 0; stroke: #d3d3d3; stroke-width: 0.8"/>
     </g>
     <g id="line2d_24">
      <g>
       <use xlink:href="#m5c2fcb6314" x="206.394225" y="307.584" style="stroke: #000000; stroke-width: 0.6"/>
      </g>
     </g>
    </g>
    <g id="xtick_13">
     <g id="line2d_25">
      <path d="M 222.195381 307.584 
L 222.195381 41.472 
" clip-path="url(#pb43aea5bef)" style="fill: none; stroke-dasharray: 0.8,1.32; stroke-dashoffset: 0; stroke: #d3d3d3; stroke-width: 0.8"/>
     </g>
     <g id="line2d_26">
      <g>
       <use xlink:href="#m5c2fcb6314" x="222.195381" y="307.584" style="stroke: #000000; stroke-width: 0.6"/>
      </g>
     </g>
    </g>
    <g id="xtick_14">
     <g id="line2d_27">
      <path d="M 237.996538 307.584 
L 237.996538 41.472 
" clip-path="url(#pb43aea5bef)" style="fill: none; stroke-dasharray: 0.8,1.32; stroke-dashoffset: 0; stroke: #d3d3d3; stroke-width: 0.8"/>
     </g>
     <g id="line2d_28">
      <g>
       <use xlink:href="#m5c2fcb6314" x="237.996538" y="307.584" style="stroke: #000000; stroke-width: 0.6"/>
      </g>
     </g>
    </g>
    <g id="xtick_15">
     <g id="line2d_29">
      <path d="M 253.797695 307.584 
L 253.797695 41.472 
" clip-path="url(#pb43aea5bef)" style="fill: none; stroke-dasharray: 0.8,1.32; stroke-dashoffset: 0; stroke: #d3d3d3; stroke-width: 0.8"/>
     </g>
     <g id="line2d_30">
      <g>
       <use xlink:href="#m5c2fcb6314" x="253.797695" y="307.584" style="stroke: #000000; stroke-width: 0.6"/>
      </g>
     </g>
    </g>
    <g id="xtick_16">
     <g id="line2d_31">
      <path d="M 285.400008 307.584 
L 285.400008 41.472 
" clip-path="url(#pb43aea5bef)" style="fill: none; stroke-dasharray: 0.8,1.32; stroke-dashoffset: 0; stroke: #d3d3d3; stroke-width: 0.8"/>
     </g>
     <g id="line2d_32">
      <g>
       <use xlink:href="#m5c2fcb6314" x="285.400008" y="307.584" style="stroke: #000000; stroke-width: 0.6"/>
      </g>
     </g>
    </g>
    <g id="xtick_17">
     <g id="line2d_33">
      <path d="M 301.201164 307.584 
L 301.201164 41.472 
" clip-path="url(#pb43aea5bef)" style="fill: none; stroke-dasharray: 0.8,1.32; stroke-dashoffset: 0; stroke: #d3d3d3; stroke-width: 0.8"/>
     </g>
     <g id="line2d_34">
      <g>
       <use xlink:href="#m5c2fcb6314" x="301.201164" y="307.584" style="stroke: #000000; stroke-width: 0.6"/>
      </g>
     </g>
    </g>
    <g id="xtick_18">
     <g id="line2d_35">
      <path d="M 317.002321 307.584 
L 317.002321 41.472 
" clip-path="url(#pb43aea5bef)" style="fill: none; stroke-dasharray: 0.8,1.32; stroke-dashoffset: 0; stroke: #d3d3d3; stroke-width: 0.8"/>
     </g>
     <g id="line2d_36">
      <g>
       <use xlink:href="#m5c2fcb6314" x="317.002321" y="307.584" style="stroke: #000000; stroke-width: 0.6"/>
      </g>
     </g>
    </g>
    <g id="xtick_19">
     <g id="line2d_37">
      <path d="M 332.803478 307.584 
L 332.803478 41.472 
" clip-path="url(#pb43aea5bef)" style="fill: none; stroke-dasharray: 0.8,1.32; stroke-dashoffset: 0; stroke: #d3d3d3; stroke-width: 0.8"/>
     </g>
     <g id="line2d_38">
      <g>
       <use xlink:href="#m5c2fcb6314" x="332.803478" y="307.584" style="stroke: #000000; stroke-width: 0.6"/>
      </g>
     </g>
    </g>
    <g id="xtick_20">
     <g id="line2d_39">
      <path d="M 364.405791 307.584 
L 364.405791 41.472 
" clip-path="url(#pb43aea5bef)" style="fill: none; stroke-dasharray: 0.8,1.32; stroke-dashoffset: 0; stroke: #d3d3d3; stroke-width: 0.8"/>
     </g>
     <g id="line2d_40">
      <g>
       <use xlink:href="#m5c2fcb6314" x="364.405791" y="307.584" style="stroke: #000000; stroke-width: 0.6"/>
      </g>
     </g>
    </g>
    <g id="xtick_21">
     <g id="line2d_41">
      <path d="M 380.206947 307.584 
L 380.206947 41.472 
" clip-path="url(#pb43aea5bef)" style="fill: none; stroke-dasharray: 0.8,1.32; stroke-dashoffset: 0; stroke: #d3d3d3; stroke-width: 0.8"/>
     </g>
     <g id="line2d_42">
      <g>
       <use xlink:href="#m5c2fcb6314" x="380.206947" y="307.584" style="stroke: #000000; stroke-width: 0.6"/>
      </g>
     </g>
    </g>
    <g id="xtick_22">
     <g id="line2d_43">
      <path d="M 396.008104 307.584 
L 396.008104 41.472 
" clip-path="url(#pb43aea5bef)" style="fill: none; stroke-dasharray: 0.8,1.32; stroke-dashoffset: 0; stroke: #d3d3d3; stroke-width: 0.8"/>
     </g>
     <g id="line2d_44">
      <g>
       <use xlink:href="#m5c2fcb6314" x="396.008104" y="307.584" style="stroke: #000000; stroke-width: 0.6"/>
      </g>
     </g>
    </g>
    <g id="xtick_23">
     <g id="line2d_45">
      <path d="M 411.809261 307.584 
L 411.809261 41.472 
" clip-path="url(#pb43aea5bef)" style="fill: none; stroke-dasharray: 0.8,1.32; stroke-dashoffset: 0; stroke: #d3d3d3; stroke-width: 0.8"/>
     </g>
     <g id="line2d_46">
      <g>
       <use xlink:href="#m5c2fcb6314" x="411.809261" y="307.584" style="stroke: #000000; stroke-width: 0.6"/>
      </g>
     </g>
    </g>
    <g id="text_5">
     <!-- Aメロの木構造の類似度 -->
     <g transform="translate(156.381094 342.02775) scale(0.15 -0.15)">
      <defs>
       <path id="IPAexGothic-41" d="M 4056 63 
L 3444 63 
L 2938 1409 
L 1100 1409 
L 603 63 
L -6 63 
L 1806 4666 
L 2259 4666 
L 4056 63 
z
M 2778 1863 
L 2316 3078 
Q 2125 3588 2028 4000 
L 2009 4000 
Q 1897 3563 1716 3078 
L 1263 1863 
L 2778 1863 
z
" transform="scale(0.015625)"/>
       <path id="IPAexGothic-30e1" d="M 2041 3641 
Q 2678 3259 3359 2747 
Q 3906 3678 4281 4819 
L 4784 4609 
Q 4347 3384 3756 2425 
Q 4225 2031 4925 1369 
L 4544 972 
Q 4031 1519 3475 1997 
Q 2522 650 1259 -172 
L 863 206 
Q 2197 1006 3091 2328 
Q 2456 2844 1700 3263 
L 2041 3641 
z
" transform="scale(0.015625)"/>
       <path id="IPAexGothic-30ed" d="M 1147 4269 
L 5250 4269 
L 5250 172 
L 4725 172 
L 4725 569 
L 1672 569 
L 1672 172 
L 1147 172 
L 1147 4269 
z
M 1672 3781 
L 1672 1063 
L 4725 1063 
L 4725 3781 
L 1672 3781 
z
" transform="scale(0.015625)"/>
       <path id="IPAexGothic-306e" d="M 3119 469 
Q 5275 766 5275 2425 
Q 5275 3453 4413 3925 
Q 4041 4116 3547 4159 
Q 3394 2525 2850 1400 
Q 2322 306 1722 306 
Q 1384 306 1084 666 
Q 609 1244 609 2003 
Q 609 3025 1397 3794 
Q 2184 4563 3431 4563 
Q 4306 4563 4928 4122 
Q 5813 3506 5813 2425 
Q 5813 438 3431 6 
L 3119 469 
z
M 3053 4147 
Q 2378 4044 1891 3641 
Q 1097 2981 1097 1991 
Q 1097 1366 1434 978 
Q 1581 813 1719 813 
Q 2022 813 2416 1625 
Q 2909 2638 3053 4147 
z
" transform="scale(0.015625)"/>
       <path id="IPAexGothic-6728" d="M 3547 3328 
Q 4384 1728 6088 838 
L 5728 353 
Q 4134 1459 3425 2797 
L 3425 -384 
L 2931 -384 
L 2931 2731 
Q 2272 1253 731 191 
L 372 594 
Q 2013 1584 2803 3328 
L 481 3328 
L 481 3769 
L 2931 3769 
L 2931 5150 
L 3425 5150 
L 3425 3769 
L 5922 3769 
L 5922 3328 
L 3547 3328 
z
" transform="scale(0.015625)"/>
       <path id="IPAexGothic-69cb" d="M 1206 2594 
Q 925 1575 456 788 
L 194 1250 
Q 856 2238 1153 3547 
L 328 3547 
L 328 3956 
L 1206 3956 
L 1206 5306 
L 1628 5306 
L 1628 3956 
L 2306 3956 
L 2306 3547 
L 1628 3547 
L 1628 2906 
Q 2213 2391 2447 2106 
L 2191 1647 
Q 1931 2031 1628 2406 
L 1628 -447 
L 1206 -447 
L 1206 2594 
z
M 5006 3194 
L 6100 3194 
L 6100 2841 
L 4328 2841 
L 4328 2509 
L 5647 2509 
L 5647 1025 
L 6131 1025 
L 6131 672 
L 5647 672 
L 5647 78 
Q 5647 -191 5525 -294 
Q 5413 -397 5106 -397 
Q 4716 -397 4409 -353 
L 4347 84 
Q 4759 13 5069 13 
Q 5228 13 5228 197 
L 5228 672 
L 3047 672 
L 3047 -447 
L 2631 -447 
L 2631 672 
L 1978 672 
L 1978 1025 
L 2631 1025 
L 2631 2509 
L 3913 2509 
L 3913 2841 
L 2175 2841 
L 2175 3194 
L 3222 3194 
L 3222 3631 
L 2522 3631 
L 2522 3956 
L 3222 3956 
L 3222 4369 
L 2291 4369 
L 2291 4709 
L 3222 4709 
L 3222 5313 
L 3644 5313 
L 3644 4709 
L 4591 4709 
L 4591 5313 
L 5006 5313 
L 5006 4709 
L 5953 4709 
L 5953 4369 
L 5006 4369 
L 5006 3956 
L 5759 3956 
L 5759 3631 
L 5006 3631 
L 5006 3194 
z
M 4591 3194 
L 4591 3631 
L 3644 3631 
L 3644 3194 
L 4591 3194 
z
M 4591 4369 
L 3644 4369 
L 3644 3956 
L 4591 3956 
L 4591 4369 
z
M 3047 2169 
L 3047 1759 
L 3925 1759 
L 3925 2169 
L 3047 2169 
z
M 3047 1434 
L 3047 1025 
L 3925 1025 
L 3925 1434 
L 3047 1434 
z
M 4316 2169 
L 4316 1759 
L 5228 1759 
L 5228 2169 
L 4316 2169 
z
M 4316 1434 
L 4316 1025 
L 5228 1025 
L 5228 1434 
L 4316 1434 
z
" transform="scale(0.015625)"/>
       <path id="IPAexGothic-9020" d="M 1703 728 
Q 1884 472 2216 306 
Q 2647 94 3891 94 
Q 4778 94 6144 172 
Q 6025 -34 5978 -300 
Q 4853 -341 4263 -341 
Q 2941 -341 2425 -200 
Q 1844 -47 1525 391 
Q 1166 -31 647 -453 
L 366 13 
Q 916 350 1263 659 
L 1263 2303 
L 378 2303 
L 378 2731 
L 1703 2731 
L 1703 728 
z
M 2997 4409 
L 3747 4409 
L 3747 5338 
L 4188 5338 
L 4188 4409 
L 5594 4409 
L 5594 4038 
L 4188 4038 
L 4188 3238 
L 5953 3238 
L 5953 2853 
L 1909 2853 
L 1909 3238 
L 3747 3238 
L 3747 4038 
L 2850 4038 
Q 2681 3656 2453 3341 
L 2094 3616 
Q 2516 4200 2747 5131 
L 3184 5016 
Q 3078 4625 2997 4409 
z
M 5422 2363 
L 5422 622 
L 2503 622 
L 2503 2363 
L 5422 2363 
z
M 2944 1984 
L 2944 1000 
L 4981 1000 
L 4981 1984 
L 2944 1984 
z
M 1522 3775 
Q 1091 4313 556 4728 
L 872 5050 
Q 1475 4581 1863 4128 
L 1522 3775 
z
" transform="scale(0.015625)"/>
       <path id="IPAexGothic-985e" d="M 1575 3238 
Q 1153 2647 513 2213 
L 256 2547 
Q 953 2959 1416 3572 
L 1447 3609 
L 366 3609 
L 366 3981 
L 1575 3981 
L 1575 5313 
L 1978 5313 
L 1978 3981 
L 3109 3981 
L 3109 3609 
L 1978 3609 
L 1978 3425 
Q 2581 3147 3059 2791 
L 2809 2406 
Q 2469 2747 1978 3059 
L 1978 2388 
L 1575 2388 
L 1575 3238 
z
M 4616 4025 
L 5709 4025 
L 5709 794 
L 3400 794 
L 3400 4025 
L 4219 4025 
Q 4284 4284 4353 4659 
L 3094 4659 
L 3094 5056 
L 6022 5056 
L 6022 4659 
L 4800 4659 
Q 4797 4638 4769 4538 
Q 4719 4309 4616 4025 
z
M 5300 3653 
L 3809 3653 
L 3809 3078 
L 5300 3078 
L 5300 3653 
z
M 3809 2713 
L 3809 2138 
L 5300 2138 
L 5300 2713 
L 3809 2713 
z
M 3809 1778 
L 3809 1166 
L 5300 1166 
L 5300 1778 
L 3809 1778 
z
M 1569 1691 
L 1569 2197 
L 1991 2197 
L 1991 1691 
L 3072 1691 
L 3072 1306 
L 1978 1306 
Q 1969 1178 1938 1081 
Q 2447 744 2944 256 
L 2625 -88 
Q 2247 375 1825 719 
Q 1525 -28 678 -497 
L 384 -153 
Q 1416 338 1550 1306 
L 366 1306 
L 366 1691 
L 1569 1691 
z
M 897 4072 
Q 706 4600 500 4916 
L 884 5088 
Q 1091 4756 1300 4238 
L 897 4072 
z
M 2200 4219 
Q 2456 4659 2578 5100 
L 2994 4978 
Q 2819 4509 2541 4072 
L 2200 4219 
z
M 5753 -422 
Q 5344 47 4728 525 
L 5044 756 
Q 5566 413 6138 -116 
L 5753 -422 
z
M 2809 -178 
Q 3488 169 3981 750 
L 4338 506 
Q 3831 -88 3122 -500 
L 2809 -178 
z
" transform="scale(0.015625)"/>
       <path id="IPAexGothic-4f3c" d="M 4784 928 
Q 4128 41 2928 -428 
L 2634 -44 
Q 4134 472 4644 1594 
Q 5009 2409 5009 4250 
L 5009 4972 
L 5450 4972 
L 5450 4403 
Q 5450 2213 5009 1300 
Q 5650 688 6109 116 
L 5744 -281 
Q 5266 400 4784 928 
z
M 1509 3769 
L 1509 -447 
L 1069 -447 
L 1069 2822 
Q 813 2363 531 1972 
L 288 2363 
Q 1131 3584 1528 5319 
L 1975 5216 
Q 1753 4369 1509 3769 
z
M 2803 1447 
Q 3338 1709 4019 2113 
L 4103 1728 
Q 3172 1106 1997 550 
L 1759 984 
Q 1984 1066 2363 1234 
L 2363 4775 
L 2803 4775 
L 2803 1447 
z
M 4025 3200 
Q 3653 3863 3153 4422 
L 3513 4684 
Q 3966 4231 4422 3481 
L 4025 3200 
z
" transform="scale(0.015625)"/>
       <path id="IPAexGothic-5ea6" d="M 3516 4622 
L 5794 4622 
L 5794 4231 
L 1278 4231 
L 1278 3547 
L 2328 3547 
L 2328 4041 
L 2759 4041 
L 2759 3547 
L 4097 3547 
L 4097 4041 
L 4525 4041 
L 4525 3547 
L 5825 3547 
L 5825 3163 
L 4525 3163 
L 4525 2266 
L 2328 2266 
L 2328 3163 
L 1278 3163 
L 1278 2747 
Q 1278 1434 1131 775 
Q 1006 203 606 -441 
L 269 -50 
Q 653 541 763 1381 
Q 825 1869 825 2747 
L 825 4622 
L 3034 4622 
L 3034 5313 
L 3516 5313 
L 3516 4622 
z
M 2759 3163 
L 2759 2619 
L 4097 2619 
L 4097 3163 
L 2759 3163 
z
M 3609 263 
Q 2784 -231 1472 -494 
L 1222 -97 
Q 2444 63 3213 491 
Q 2544 909 2119 1522 
L 1575 1522 
L 1575 1900 
L 4897 1900 
L 5125 1700 
Q 4628 994 3994 516 
Q 4769 200 5925 56 
L 5638 -397 
Q 4434 -163 3609 263 
z
M 2606 1522 
Q 2984 1044 3578 716 
Q 4163 1119 4422 1522 
L 2606 1522 
z
" transform="scale(0.015625)"/>
      </defs>
      <use xlink:href="#IPAexGothic-41"/>
      <use xlink:href="#IPAexGothic-30e1" x="63.720703"/>
      <use xlink:href="#IPAexGothic-30ed" x="163.720703"/>
      <use xlink:href="#IPAexGothic-306e" x="263.720703"/>
      <use xlink:href="#IPAexGothic-6728" x="363.720703"/>
      <use xlink:href="#IPAexGothic-69cb" x="463.720703"/>
      <use xlink:href="#IPAexGothic-9020" x="563.720703"/>
      <use xlink:href="#IPAexGothic-306e" x="663.720703"/>
      <use xlink:href="#IPAexGothic-985e" x="763.720703"/>
      <use xlink:href="#IPAexGothic-4f3c" x="863.720703"/>
      <use xlink:href="#IPAexGothic-5ea6" x="963.720703"/>
     </g>
    </g>
   </g>
   <g id="matplotlib.axis_2">
    <g id="ytick_1">
     <g id="line2d_47">
      <path d="M 57.6 267.354765 
L 414.72 267.354765 
" clip-path="url(#pb43aea5bef)" style="fill: none; stroke: #808080; stroke-width: 0.8; stroke-linecap: square"/>
     </g>
     <g id="line2d_48">
      <defs>
       <path id="md631f183f2" d="M 0 0 
L -3.5 0 
" style="stroke: #000000; stroke-width: 0.8"/>
      </defs>
      <g>
       <use xlink:href="#md631f183f2" x="57.6" y="267.354765" style="stroke: #000000; stroke-width: 0.8"/>
      </g>
     </g>
     <g id="text_6">
      <!-- 0.1 -->
      <g transform="translate(30.789219 272.223671) scale(0.13 -0.13)">
       <use xlink:href="#IPAexGothic-30"/>
       <use xlink:href="#IPAexGothic-2e" x="62.988281"/>
       <use xlink:href="#IPAexGothic-31" x="89.404297"/>
      </g>
     </g>
    </g>
    <g id="ytick_2">
     <g id="line2d_49">
      <path d="M 57.6 208.482714 
L 414.72 208.482714 
" clip-path="url(#pb43aea5bef)" style="fill: none; stroke: #808080; stroke-width: 0.8; stroke-linecap: square"/>
     </g>
     <g id="line2d_50">
      <g>
       <use xlink:href="#md631f183f2" x="57.6" y="208.482714" style="stroke: #000000; stroke-width: 0.8"/>
      </g>
     </g>
     <g id="text_7">
      <!-- 0.2 -->
      <g transform="translate(30.789219 213.35162) scale(0.13 -0.13)">
       <use xlink:href="#IPAexGothic-30"/>
       <use xlink:href="#IPAexGothic-2e" x="62.988281"/>
       <use xlink:href="#IPAexGothic-32" x="89.404297"/>
      </g>
     </g>
    </g>
    <g id="ytick_3">
     <g id="line2d_51">
      <path d="M 57.6 149.610663 
L 414.72 149.610663 
" clip-path="url(#pb43aea5bef)" style="fill: none; stroke: #808080; stroke-width: 0.8; stroke-linecap: square"/>
     </g>
     <g id="line2d_52">
      <g>
       <use xlink:href="#md631f183f2" x="57.6" y="149.610663" style="stroke: #000000; stroke-width: 0.8"/>
      </g>
     </g>
     <g id="text_8">
      <!-- 0.3 -->
      <g transform="translate(30.789219 154.479569) scale(0.13 -0.13)">
       <use xlink:href="#IPAexGothic-30"/>
       <use xlink:href="#IPAexGothic-2e" x="62.988281"/>
       <use xlink:href="#IPAexGothic-33" x="89.404297"/>
      </g>
     </g>
    </g>
    <g id="ytick_4">
     <g id="line2d_53">
      <path d="M 57.6 90.738611 
L 414.72 90.738611 
" clip-path="url(#pb43aea5bef)" style="fill: none; stroke: #808080; stroke-width: 0.8; stroke-linecap: square"/>
     </g>
     <g id="line2d_54">
      <g>
       <use xlink:href="#md631f183f2" x="57.6" y="90.738611" style="stroke: #000000; stroke-width: 0.8"/>
      </g>
     </g>
     <g id="text_9">
      <!-- 0.4 -->
      <g transform="translate(30.789219 95.607518) scale(0.13 -0.13)">
       <use xlink:href="#IPAexGothic-30"/>
       <use xlink:href="#IPAexGothic-2e" x="62.988281"/>
       <use xlink:href="#IPAexGothic-34" x="89.404297"/>
      </g>
     </g>
    </g>
    <g id="ytick_5">
     <g id="line2d_55">
      <path d="M 57.6 302.677996 
L 414.72 302.677996 
" clip-path="url(#pb43aea5bef)" style="fill: none; stroke-dasharray: 0.8,1.32; stroke-dashoffset: 0; stroke: #d3d3d3; stroke-width: 0.8"/>
     </g>
     <g id="line2d_56">
      <defs>
       <path id="mb268e44999" d="M 0 0 
L -2 0 
" style="stroke: #000000; stroke-width: 0.6"/>
      </defs>
      <g>
       <use xlink:href="#mb268e44999" x="57.6" y="302.677996" style="stroke: #000000; stroke-width: 0.6"/>
      </g>
     </g>
    </g>
    <g id="ytick_6">
     <g id="line2d_57">
      <path d="M 57.6 290.903585 
L 414.72 290.903585 
" clip-path="url(#pb43aea5bef)" style="fill: none; stroke-dasharray: 0.8,1.32; stroke-dashoffset: 0; stroke: #d3d3d3; stroke-width: 0.8"/>
     </g>
     <g id="line2d_58">
      <g>
       <use xlink:href="#mb268e44999" x="57.6" y="290.903585" style="stroke: #000000; stroke-width: 0.6"/>
      </g>
     </g>
    </g>
    <g id="ytick_7">
     <g id="line2d_59">
      <path d="M 57.6 279.129175 
L 414.72 279.129175 
" clip-path="url(#pb43aea5bef)" style="fill: none; stroke-dasharray: 0.8,1.32; stroke-dashoffset: 0; stroke: #d3d3d3; stroke-width: 0.8"/>
     </g>
     <g id="line2d_60">
      <g>
       <use xlink:href="#mb268e44999" x="57.6" y="279.129175" style="stroke: #000000; stroke-width: 0.6"/>
      </g>
     </g>
    </g>
    <g id="ytick_8">
     <g id="line2d_61">
      <path d="M 57.6 255.580355 
L 414.72 255.580355 
" clip-path="url(#pb43aea5bef)" style="fill: none; stroke-dasharray: 0.8,1.32; stroke-dashoffset: 0; stroke: #d3d3d3; stroke-width: 0.8"/>
     </g>
     <g id="line2d_62">
      <g>
       <use xlink:href="#mb268e44999" x="57.6" y="255.580355" style="stroke: #000000; stroke-width: 0.6"/>
      </g>
     </g>
    </g>
    <g id="ytick_9">
     <g id="line2d_63">
      <path d="M 57.6 243.805944 
L 414.72 243.805944 
" clip-path="url(#pb43aea5bef)" style="fill: none; stroke-dasharray: 0.8,1.32; stroke-dashoffset: 0; stroke: #d3d3d3; stroke-width: 0.8"/>
     </g>
     <g id="line2d_64">
      <g>
       <use xlink:href="#mb268e44999" x="57.6" y="243.805944" style="stroke: #000000; stroke-width: 0.6"/>
      </g>
     </g>
    </g>
    <g id="ytick_10">
     <g id="line2d_65">
      <path d="M 57.6 232.031534 
L 414.72 232.031534 
" clip-path="url(#pb43aea5bef)" style="fill: none; stroke-dasharray: 0.8,1.32; stroke-dashoffset: 0; stroke: #d3d3d3; stroke-width: 0.8"/>
     </g>
     <g id="line2d_66">
      <g>
       <use xlink:href="#mb268e44999" x="57.6" y="232.031534" style="stroke: #000000; stroke-width: 0.6"/>
      </g>
     </g>
    </g>
    <g id="ytick_11">
     <g id="line2d_67">
      <path d="M 57.6 220.257124 
L 414.72 220.257124 
" clip-path="url(#pb43aea5bef)" style="fill: none; stroke-dasharray: 0.8,1.32; stroke-dashoffset: 0; stroke: #d3d3d3; stroke-width: 0.8"/>
     </g>
     <g id="line2d_68">
      <g>
       <use xlink:href="#mb268e44999" x="57.6" y="220.257124" style="stroke: #000000; stroke-width: 0.6"/>
      </g>
     </g>
    </g>
    <g id="ytick_12">
     <g id="line2d_69">
      <path d="M 57.6 196.708304 
L 414.72 196.708304 
" clip-path="url(#pb43aea5bef)" style="fill: none; stroke-dasharray: 0.8,1.32; stroke-dashoffset: 0; stroke: #d3d3d3; stroke-width: 0.8"/>
     </g>
     <g id="line2d_70">
      <g>
       <use xlink:href="#mb268e44999" x="57.6" y="196.708304" style="stroke: #000000; stroke-width: 0.6"/>
      </g>
     </g>
    </g>
    <g id="ytick_13">
     <g id="line2d_71">
      <path d="M 57.6 184.933893 
L 414.72 184.933893 
" clip-path="url(#pb43aea5bef)" style="fill: none; stroke-dasharray: 0.8,1.32; stroke-dashoffset: 0; stroke: #d3d3d3; stroke-width: 0.8"/>
     </g>
     <g id="line2d_72">
      <g>
       <use xlink:href="#mb268e44999" x="57.6" y="184.933893" style="stroke: #000000; stroke-width: 0.6"/>
      </g>
     </g>
    </g>
    <g id="ytick_14">
     <g id="line2d_73">
      <path d="M 57.6 173.159483 
L 414.72 173.159483 
" clip-path="url(#pb43aea5bef)" style="fill: none; stroke-dasharray: 0.8,1.32; stroke-dashoffset: 0; stroke: #d3d3d3; stroke-width: 0.8"/>
     </g>
     <g id="line2d_74">
      <g>
       <use xlink:href="#mb268e44999" x="57.6" y="173.159483" style="stroke: #000000; stroke-width: 0.6"/>
      </g>
     </g>
    </g>
    <g id="ytick_15">
     <g id="line2d_75">
      <path d="M 57.6 161.385073 
L 414.72 161.385073 
" clip-path="url(#pb43aea5bef)" style="fill: none; stroke-dasharray: 0.8,1.32; stroke-dashoffset: 0; stroke: #d3d3d3; stroke-width: 0.8"/>
     </g>
     <g id="line2d_76">
      <g>
       <use xlink:href="#mb268e44999" x="57.6" y="161.385073" style="stroke: #000000; stroke-width: 0.6"/>
      </g>
     </g>
    </g>
    <g id="ytick_16">
     <g id="line2d_77">
      <path d="M 57.6 137.836252 
L 414.72 137.836252 
" clip-path="url(#pb43aea5bef)" style="fill: none; stroke-dasharray: 0.8,1.32; stroke-dashoffset: 0; stroke: #d3d3d3; stroke-width: 0.8"/>
     </g>
     <g id="line2d_78">
      <g>
       <use xlink:href="#mb268e44999" x="57.6" y="137.836252" style="stroke: #000000; stroke-width: 0.6"/>
      </g>
     </g>
    </g>
    <g id="ytick_17">
     <g id="line2d_79">
      <path d="M 57.6 126.061842 
L 414.72 126.061842 
" clip-path="url(#pb43aea5bef)" style="fill: none; stroke-dasharray: 0.8,1.32; stroke-dashoffset: 0; stroke: #d3d3d3; stroke-width: 0.8"/>
     </g>
     <g id="line2d_80">
      <g>
       <use xlink:href="#mb268e44999" x="57.6" y="126.061842" style="stroke: #000000; stroke-width: 0.6"/>
      </g>
     </g>
    </g>
    <g id="ytick_18">
     <g id="line2d_81">
      <path d="M 57.6 114.287432 
L 414.72 114.287432 
" clip-path="url(#pb43aea5bef)" style="fill: none; stroke-dasharray: 0.8,1.32; stroke-dashoffset: 0; stroke: #d3d3d3; stroke-width: 0.8"/>
     </g>
     <g id="line2d_82">
      <g>
       <use xlink:href="#mb268e44999" x="57.6" y="114.287432" style="stroke: #000000; stroke-width: 0.6"/>
      </g>
     </g>
    </g>
    <g id="ytick_19">
     <g id="line2d_83">
      <path d="M 57.6 102.513022 
L 414.72 102.513022 
" clip-path="url(#pb43aea5bef)" style="fill: none; stroke-dasharray: 0.8,1.32; stroke-dashoffset: 0; stroke: #d3d3d3; stroke-width: 0.8"/>
     </g>
     <g id="line2d_84">
      <g>
       <use xlink:href="#mb268e44999" x="57.6" y="102.513022" style="stroke: #000000; stroke-width: 0.6"/>
      </g>
     </g>
    </g>
    <g id="ytick_20">
     <g id="line2d_85">
      <path d="M 57.6 78.964201 
L 414.72 78.964201 
" clip-path="url(#pb43aea5bef)" style="fill: none; stroke-dasharray: 0.8,1.32; stroke-dashoffset: 0; stroke: #d3d3d3; stroke-width: 0.8"/>
     </g>
     <g id="line2d_86">
      <g>
       <use xlink:href="#mb268e44999" x="57.6" y="78.964201" style="stroke: #000000; stroke-width: 0.6"/>
      </g>
     </g>
    </g>
    <g id="ytick_21">
     <g id="line2d_87">
      <path d="M 57.6 67.189791 
L 414.72 67.189791 
" clip-path="url(#pb43aea5bef)" style="fill: none; stroke-dasharray: 0.8,1.32; stroke-dashoffset: 0; stroke: #d3d3d3; stroke-width: 0.8"/>
     </g>
     <g id="line2d_88">
      <g>
       <use xlink:href="#mb268e44999" x="57.6" y="67.189791" style="stroke: #000000; stroke-width: 0.6"/>
      </g>
     </g>
    </g>
    <g id="ytick_22">
     <g id="line2d_89">
      <path d="M 57.6 55.415381 
L 414.72 55.415381 
" clip-path="url(#pb43aea5bef)" style="fill: none; stroke-dasharray: 0.8,1.32; stroke-dashoffset: 0; stroke: #d3d3d3; stroke-width: 0.8"/>
     </g>
     <g id="line2d_90">
      <g>
       <use xlink:href="#mb268e44999" x="57.6" y="55.415381" style="stroke: #000000; stroke-width: 0.6"/>
      </g>
     </g>
    </g>
    <g id="ytick_23">
     <g id="line2d_91">
      <path d="M 57.6 43.64097 
L 414.72 43.64097 
" clip-path="url(#pb43aea5bef)" style="fill: none; stroke-dasharray: 0.8,1.32; stroke-dashoffset: 0; stroke: #d3d3d3; stroke-width: 0.8"/>
     </g>
     <g id="line2d_92">
      <g>
       <use xlink:href="#mb268e44999" x="57.6" y="43.64097" style="stroke: #000000; stroke-width: 0.6"/>
      </g>
     </g>
    </g>
    <g id="text_10">
     <!-- サビの木構造の類似度 -->
     <g transform="translate(23.939219 249.528) rotate(-90) scale(0.15 -0.15)">
      <defs>
       <path id="IPAexGothic-30b5" d="M 3994 4919 
L 4506 4919 
L 4506 3531 
L 5888 3531 
L 5888 3072 
L 4506 3072 
Q 4488 1719 4153 1063 
Q 3728 222 2644 -325 
L 2266 38 
Q 3325 525 3713 1319 
Q 3975 1853 3994 3072 
L 2331 3072 
L 2331 1575 
L 1819 1575 
L 1819 3072 
L 513 3072 
L 513 3531 
L 1819 3531 
L 1819 4797 
L 2331 4797 
L 2331 3531 
L 3994 3531 
L 3994 4919 
z
" transform="scale(0.015625)"/>
       <path id="IPAexGothic-30d3" d="M 1356 4775 
L 1881 4775 
L 1881 2778 
Q 3553 3153 4747 3891 
L 5131 3475 
Q 3644 2681 1881 2297 
L 1881 1063 
Q 1881 744 2072 669 
Q 2266 584 3163 584 
Q 4169 584 5394 716 
L 5394 206 
Q 4259 97 3263 97 
Q 1938 97 1644 294 
Q 1356 478 1356 966 
L 1356 4775 
z
M 5972 4250 
Q 5609 4791 5216 5119 
L 5516 5350 
Q 5900 5041 6291 4525 
L 5972 4250 
z
M 5375 3781 
Q 5084 4272 4641 4672 
L 4953 4916 
Q 5325 4606 5709 4056 
L 5375 3781 
z
" transform="scale(0.015625)"/>
      </defs>
      <use xlink:href="#IPAexGothic-30b5"/>
      <use xlink:href="#IPAexGothic-30d3" x="100"/>
      <use xlink:href="#IPAexGothic-306e" x="200"/>
      <use xlink:href="#IPAexGothic-6728" x="300"/>
      <use xlink:href="#IPAexGothic-69cb" x="400"/>
      <use xlink:href="#IPAexGothic-9020" x="500"/>
      <use xlink:href="#IPAexGothic-306e" x="600"/>
      <use xlink:href="#IPAexGothic-985e" x="700"/>
      <use xlink:href="#IPAexGothic-4f3c" x="800"/>
      <use xlink:href="#IPAexGothic-5ea6" x="900"/>
     </g>
    </g>
   </g>
   <g id="patch_3">
    <path d="M 57.6 307.584 
L 57.6 41.472 
" style="fill: none; stroke: #000000; stroke-width: 0.8; stroke-linejoin: miter; stroke-linecap: square"/>
   </g>
   <g id="patch_4">
    <path d="M 414.72 307.584 
L 414.72 41.472 
" style="fill: none; stroke: #000000; stroke-width: 0.8; stroke-linejoin: miter; stroke-linecap: square"/>
   </g>
   <g id="patch_5">
    <path d="M 57.6 307.584 
L 414.72 307.584 
" style="fill: none; stroke: #000000; stroke-width: 0.8; stroke-linejoin: miter; stroke-linecap: square"/>
   </g>
   <g id="patch_6">
    <path d="M 57.6 41.472 
L 414.72 41.472 
" style="fill: none; stroke: #000000; stroke-width: 0.8; stroke-linejoin: miter; stroke-linecap: square"/>
   </g>
   <g id="legend_1">
    <g id="patch_7">
     <path d="M 311.22 96.643875 
L 404.22 96.643875 
Q 407.22 96.643875 407.22 93.643875 
L 407.22 51.972 
Q 407.22 48.972 404.22 48.972 
L 311.22 48.972 
Q 308.22 48.972 308.22 51.972 
L 308.22 93.643875 
Q 308.22 96.643875 311.22 96.643875 
z
" style="fill: #ffffff; opacity: 0.8; stroke: #cccccc; stroke-linejoin: miter"/>
    </g>
    <g id="PathCollection_3">
     <g>
      <use xlink:href="#mf79495bb0e" x="329.22" y="62.270437" style="fill: #0000ff; stroke: #0000ff"/>
     </g>
    </g>
    <g id="text_11">
     <!-- 人気曲 -->
     <g transform="translate(356.22 66.207937) scale(0.15 -0.15)">
      <defs>
       <path id="IPAexGothic-4eba" d="M 3434 5081 
L 3434 4659 
Q 3434 3131 4050 2069 
Q 4669 994 6022 275 
L 5644 -197 
Q 4359 588 3641 1863 
Q 3394 2300 3225 3009 
Q 2822 766 819 -325 
L 441 97 
Q 1856 759 2438 1972 
Q 2919 2959 2919 4634 
L 2919 5081 
L 3434 5081 
z
" transform="scale(0.015625)"/>
       <path id="IPAexGothic-6c17" d="M 1863 4659 
L 5594 4659 
L 5594 4263 
L 1672 4263 
Q 1306 3572 831 3059 
L 531 3397 
Q 1266 4181 1600 5288 
L 2069 5203 
Q 1981 4941 1863 4659 
z
M 5000 2950 
L 5006 2400 
Q 5025 1044 5222 466 
Q 5328 184 5394 184 
Q 5513 184 5638 1191 
L 6047 916 
Q 5847 -450 5422 -450 
Q 5128 -450 4856 147 
Q 4550 819 4550 2381 
L 4550 2553 
L 672 2553 
L 672 2950 
L 5000 2950 
z
M 2388 1106 
Q 1741 1553 1069 1875 
L 1350 2188 
Q 1991 1878 2606 1478 
L 2669 1441 
Q 3034 1894 3250 2431 
L 3681 2241 
Q 3403 1634 3047 1184 
Q 3672 744 4269 231 
L 3944 -128 
Q 3384 391 2759 844 
Q 2031 50 928 -372 
L 653 31 
Q 1728 403 2356 1069 
L 2388 1106 
z
M 1516 3822 
L 4991 3822 
L 4991 3425 
L 1516 3425 
L 1516 3822 
z
" transform="scale(0.015625)"/>
       <path id="IPAexGothic-66f2" d="M 2200 4128 
L 2200 5153 
L 2669 5153 
L 2669 4128 
L 3703 4128 
L 3703 5153 
L 4172 5153 
L 4172 4128 
L 5716 4128 
L 5716 -397 
L 5247 -397 
L 5247 -97 
L 1138 -97 
L 1138 -397 
L 678 -397 
L 678 4128 
L 2200 4128 
z
M 1138 3706 
L 1138 2284 
L 2216 2284 
L 2216 3706 
L 1138 3706 
z
M 1138 1875 
L 1138 319 
L 2216 319 
L 2216 1875 
L 1138 1875 
z
M 2656 3706 
L 2656 2284 
L 3719 2284 
L 3719 3706 
L 2656 3706 
z
M 2656 1875 
L 2656 319 
L 3719 319 
L 3719 1875 
L 2656 1875 
z
M 4159 3706 
L 4159 2284 
L 5247 2284 
L 5247 3706 
L 4159 3706 
z
M 4159 1875 
L 4159 319 
L 5247 319 
L 5247 1875 
L 4159 1875 
z
" transform="scale(0.015625)"/>
      </defs>
      <use xlink:href="#IPAexGothic-4eba"/>
      <use xlink:href="#IPAexGothic-6c17" x="100"/>
      <use xlink:href="#IPAexGothic-66f2" x="200"/>
     </g>
    </g>
    <g id="PathCollection_4">
     <g>
      <use xlink:href="#m0b34a250ec" x="329.22" y="83.856375" style="fill: #ff0000; stroke: #ff0000"/>
     </g>
    </g>
    <g id="text_12">
     <!-- 普通曲 -->
     <g transform="translate(356.22 87.793875) scale(0.15 -0.15)">
      <defs>
       <path id="IPAexGothic-666e" d="M 2363 4116 
L 609 4116 
L 609 4500 
L 2178 4500 
Q 2009 4781 1759 5081 
L 2191 5275 
Q 2472 4875 2669 4500 
L 3681 4500 
Q 3953 4866 4122 5294 
L 4591 5128 
Q 4341 4719 4166 4500 
L 5794 4500 
L 5794 4116 
L 3994 4116 
L 3994 2803 
L 6041 2803 
L 6041 2413 
L 353 2413 
L 353 2803 
L 2363 2803 
L 2363 4116 
z
M 2797 4116 
L 2797 2803 
L 3559 2803 
L 3559 4116 
L 2797 4116 
z
M 5203 1997 
L 5203 -447 
L 4744 -447 
L 4744 -159 
L 1650 -159 
L 1650 -447 
L 1184 -447 
L 1184 1997 
L 5203 1997 
z
M 1650 1638 
L 1650 1109 
L 4744 1109 
L 4744 1638 
L 1650 1638 
z
M 1650 756 
L 1650 200 
L 4744 200 
L 4744 756 
L 1650 756 
z
M 4366 3022 
Q 4666 3525 4853 4072 
L 5288 3884 
Q 4975 3188 4744 2841 
L 4366 3022 
z
M 1575 2847 
Q 1306 3509 1056 3866 
L 1447 4063 
Q 1769 3578 1984 3059 
L 1575 2847 
z
" transform="scale(0.015625)"/>
       <path id="IPAexGothic-901a" d="M 1697 728 
Q 1906 453 2209 306 
Q 2650 94 3897 94 
Q 4725 94 6125 166 
Q 6025 -41 5978 -300 
Q 4844 -341 4269 -341 
Q 2931 -341 2394 -188 
Q 1781 -25 1509 384 
Q 1191 -9 647 -453 
L 366 13 
Q 897 338 1256 659 
L 1256 2303 
L 372 2303 
L 372 2731 
L 1697 2731 
L 1697 728 
z
M 4094 3763 
Q 3397 4138 2816 4366 
L 3103 4622 
Q 3475 4475 3928 4269 
Q 4488 4531 4728 4691 
L 2253 4691 
L 2253 5050 
L 5269 5050 
L 5491 4806 
Q 4938 4416 4294 4088 
L 4363 4056 
Q 4503 3988 4556 3953 
L 4281 3763 
L 5653 3763 
L 5653 813 
Q 5653 381 5209 381 
Q 4863 381 4594 441 
L 4525 863 
Q 4847 791 5081 791 
Q 5228 791 5228 959 
L 5228 1541 
L 4153 1541 
L 4153 459 
L 3744 459 
L 3744 1541 
L 2734 1541 
L 2734 394 
L 2319 394 
L 2319 3763 
L 4094 3763 
z
M 2734 3403 
L 2734 2834 
L 3744 2834 
L 3744 3403 
L 2734 3403 
z
M 2734 2481 
L 2734 1894 
L 3744 1894 
L 3744 2481 
L 2734 2481 
z
M 5228 1894 
L 5228 2481 
L 4153 2481 
L 4153 1894 
L 5228 1894 
z
M 5228 2834 
L 5228 3403 
L 4153 3403 
L 4153 2834 
L 5228 2834 
z
M 1516 3775 
Q 1050 4350 556 4728 
L 863 5050 
Q 1450 4591 1856 4128 
L 1516 3775 
z
" transform="scale(0.015625)"/>
      </defs>
      <use xlink:href="#IPAexGothic-666e"/>
      <use xlink:href="#IPAexGothic-901a" x="100"/>
      <use xlink:href="#IPAexGothic-66f2" x="200"/>
     </g>
    </g>
   </g>
  </g>
 </g>
 <defs>
  <clipPath id="pb43aea5bef">
   <rect x="57.6" y="41.472" width="357.12" height="266.112"/>
  </clipPath>
 </defs>
</svg>
