<?xml version="1.0" encoding="utf-8" standalone="no"?>
<!DOCTYPE svg PUBLIC "-//W3C//DTD SVG 1.1//EN"
  "http://www.w3.org/Graphics/SVG/1.1/DTD/svg11.dtd">
<svg xmlns:xlink="http://www.w3.org/1999/xlink" width="460.8pt" height="345.6pt" viewBox="0 0 460.8 345.6" xmlns="http://www.w3.org/2000/svg" version="1.1">
 <metadata>
  <rdf:RDF xmlns:dc="http://purl.org/dc/elements/1.1/" xmlns:cc="http://creativecommons.org/ns#" xmlns:rdf="http://www.w3.org/1999/02/22-rdf-syntax-ns#">
   <cc:Work>
    <dc:type rdf:resource="http://purl.org/dc/dcmitype/StillImage"/>
    <dc:date>2024-02-23T11:15:38.834410</dc:date>
    <dc:format>image/svg+xml</dc:format>
    <dc:creator>
     <cc:Agent>
      <dc:title>Matplotlib v3.7.2, https://matplotlib.org/</dc:title>
     </cc:Agent>
    </dc:creator>
   </cc:Work>
  </rdf:RDF>
 </metadata>
 <defs>
  <style type="text/css">*{stroke-linejoin: round; stroke-linecap: butt}</style>
 </defs>
 <g id="figure_1">
  <g id="patch_1">
   <path d="M 0 345.6 
L 460.8 345.6 
L 460.8 0 
L 0 0 
z
" style="fill: #ffffff"/>
  </g>
  <g id="axes_1">
   <g id="patch_2">
    <path d="M 57.6 307.584 
L 414.72 307.584 
L 414.72 41.472 
L 57.6 41.472 
z
" style="fill: #ffffff"/>
   </g>
   <g id="PathCollection_1">
    <defs>
     <path id="m3cb336d4ff" d="M 0 3 
C 0.795609 3 1.55874 2.683901 2.12132 2.12132 
C 2.683901 1.55874 3 0.795609 3 0 
C 3 -0.795609 2.683901 -1.55874 2.12132 -2.12132 
C 1.55874 -2.683901 0.795609 -3 0 -3 
C -0.795609 -3 -1.55874 -2.683901 -2.12132 -2.12132 
C -2.683901 -1.55874 -3 -0.795609 -3 0 
C -3 0.795609 -2.683901 1.55874 -2.12132 2.12132 
C -1.55874 2.683901 -0.795609 3 0 3 
z
" style="stroke: #0000ff"/>
    </defs>
    <g clip-path="url(#p6c5143a2dc)">
     <use xlink:href="#m3cb336d4ff" x="220.605993" y="189.51051" style="fill: #0000ff; stroke: #0000ff"/>
     <use xlink:href="#m3cb336d4ff" x="230.429576" y="146.380265" style="fill: #0000ff; stroke: #0000ff"/>
     <use xlink:href="#m3cb336d4ff" x="270.682308" y="106.642286" style="fill: #0000ff; stroke: #0000ff"/>
     <use xlink:href="#m3cb336d4ff" x="289.371076" y="171.730355" style="fill: #0000ff; stroke: #0000ff"/>
     <use xlink:href="#m3cb336d4ff" x="127.281951" y="98.896747" style="fill: #0000ff; stroke: #0000ff"/>
     <use xlink:href="#m3cb336d4ff" x="131.339518" y="302.020683" style="fill: #0000ff; stroke: #0000ff"/>
     <use xlink:href="#m3cb336d4ff" x="291.403542" y="205.987233" style="fill: #0000ff; stroke: #0000ff"/>
     <use xlink:href="#m3cb336d4ff" x="271.510016" y="146.380265" style="fill: #0000ff; stroke: #0000ff"/>
     <use xlink:href="#m3cb336d4ff" x="317.148105" y="160.362146" style="fill: #0000ff; stroke: #0000ff"/>
     <use xlink:href="#m3cb336d4ff" x="75.435261" y="139.757268" style="fill: #0000ff; stroke: #0000ff"/>
     <use xlink:href="#m3cb336d4ff" x="144.564181" y="248.841917" style="fill: #0000ff; stroke: #0000ff"/>
     <use xlink:href="#m3cb336d4ff" x="133.503554" y="160.362146" style="fill: #0000ff; stroke: #0000ff"/>
     <use xlink:href="#m3cb336d4ff" x="183.276376" y="157.007864" style="fill: #0000ff; stroke: #0000ff"/>
     <use xlink:href="#m3cb336d4ff" x="158.389965" y="99.661289" style="fill: #0000ff; stroke: #0000ff"/>
     <use xlink:href="#m3cb336d4ff" x="211.717989" y="173.474341" style="fill: #0000ff; stroke: #0000ff"/>
     <use xlink:href="#m3cb336d4ff" x="353.926053" y="136.04839" style="fill: #0000ff; stroke: #0000ff"/>
     <use xlink:href="#m3cb336d4ff" x="193.941981" y="131.69449" style="fill: #0000ff; stroke: #0000ff"/>
     <use xlink:href="#m3cb336d4ff" x="231.170979" y="152.546503" style="fill: #0000ff; stroke: #0000ff"/>
     <use xlink:href="#m3cb336d4ff" x="140.613957" y="188.74245" style="fill: #0000ff; stroke: #0000ff"/>
     <use xlink:href="#m3cb336d4ff" x="202.543275" y="195.821704" style="fill: #0000ff; stroke: #0000ff"/>
     <use xlink:href="#m3cb336d4ff" x="273.934017" y="102.668488" style="fill: #0000ff; stroke: #0000ff"/>
     <use xlink:href="#m3cb336d4ff" x="273.934017" y="160.830439" style="fill: #0000ff; stroke: #0000ff"/>
     <use xlink:href="#m3cb336d4ff" x="199.867317" y="168.287099" style="fill: #0000ff; stroke: #0000ff"/>
     <use xlink:href="#m3cb336d4ff" x="253.54389" y="205.987233" style="fill: #0000ff; stroke: #0000ff"/>
     <use xlink:href="#m3cb336d4ff" x="229.493997" y="220.888976" style="fill: #0000ff; stroke: #0000ff"/>
     <use xlink:href="#m3cb336d4ff" x="162.680726" y="186.118244" style="fill: #0000ff; stroke: #0000ff"/>
    </g>
   </g>
   <g id="PathCollection_2">
    <defs>
     <path id="me575431c66" d="M 0 3 
C 0.795609 3 1.55874 2.683901 2.12132 2.12132 
C 2.683901 1.55874 3 0.795609 3 0 
C 3 -0.795609 2.683901 -1.55874 2.12132 -2.12132 
C 1.55874 -2.683901 0.795609 -3 0 -3 
C -0.795609 -3 -1.55874 -2.683901 -2.12132 -2.12132 
C -2.683901 -1.55874 -3 -0.795609 -3 0 
C -3 0.795609 -2.683901 1.55874 -2.12132 2.12132 
C -1.55874 2.683901 -0.795609 3 0 3 
z
" style="stroke: #ff0000"/>
    </defs>
    <g clip-path="url(#p6c5143a2dc)">
     <use xlink:href="#me575431c66" x="387.60691" y="160.362146" style="fill: #ff0000; stroke: #ff0000"/>
     <use xlink:href="#me575431c66" x="168.589314" y="219.949226" style="fill: #ff0000; stroke: #ff0000"/>
     <use xlink:href="#me575431c66" x="263.678628" y="259.750382" style="fill: #ff0000; stroke: #ff0000"/>
     <use xlink:href="#me575431c66" x="255.170453" y="219.949226" style="fill: #ff0000; stroke: #ff0000"/>
     <use xlink:href="#me575431c66" x="265.046013" y="176.846049" style="fill: #ff0000; stroke: #ff0000"/>
     <use xlink:href="#me575431c66" x="207.273987" y="205.987233" style="fill: #ff0000; stroke: #ff0000"/>
     <use xlink:href="#me575431c66" x="230.429576" y="261.009051" style="fill: #ff0000; stroke: #ff0000"/>
     <use xlink:href="#me575431c66" x="186.669978" y="130.485073" style="fill: #ff0000; stroke: #ff0000"/>
     <use xlink:href="#me575431c66" x="156.127564" y="290.430439" style="fill: #ff0000; stroke: #ff0000"/>
     <use xlink:href="#me575431c66" x="188.425289" y="255.659707" style="fill: #ff0000; stroke: #ff0000"/>
     <use xlink:href="#me575431c66" x="249.321083" y="204.913234" style="fill: #ff0000; stroke: #ff0000"/>
     <use xlink:href="#me575431c66" x="96.173937" y="151.347512" style="fill: #ff0000; stroke: #ff0000"/>
     <use xlink:href="#me575431c66" x="203.637985" y="261.359827" style="fill: #ff0000; stroke: #ff0000"/>
     <use xlink:href="#me575431c66" x="183.276376" y="247.573491" style="fill: #ff0000; stroke: #ff0000"/>
     <use xlink:href="#me575431c66" x="163.800055" y="250.310364" style="fill: #ff0000; stroke: #ff0000"/>
     <use xlink:href="#me575431c66" x="214.94999" y="188.74245" style="fill: #ff0000; stroke: #ff0000"/>
     <use xlink:href="#me575431c66" x="234.963538" y="168.287099" style="fill: #ff0000; stroke: #ff0000"/>
     <use xlink:href="#me575431c66" x="273.934017" y="152.546503" style="fill: #ff0000; stroke: #ff0000"/>
     <use xlink:href="#me575431c66" x="199.867317" y="150.354063" style="fill: #ff0000; stroke: #ff0000"/>
     <use xlink:href="#me575431c66" x="171.79034" y="253.416434" style="fill: #ff0000; stroke: #ff0000"/>
     <use xlink:href="#me575431c66" x="302.73115" y="224.049951" style="fill: #ff0000; stroke: #ff0000"/>
     <use xlink:href="#me575431c66" x="212.490859" y="164.483122" style="fill: #ff0000; stroke: #ff0000"/>
     <use xlink:href="#me575431c66" x="150.094495" y="230.729749" style="fill: #ff0000; stroke: #ff0000"/>
     <use xlink:href="#me575431c66" x="103.950941" y="288.11239" style="fill: #ff0000; stroke: #ff0000"/>
     <use xlink:href="#me575431c66" x="187.105055" y="209.298732" style="fill: #ff0000; stroke: #ff0000"/>
     <use xlink:href="#me575431c66" x="345.038049" y="186.118244" style="fill: #ff0000; stroke: #ff0000"/>
     <use xlink:href="#me575431c66" x="191.135243" y="293.410787" style="fill: #ff0000; stroke: #ff0000"/>
    </g>
   </g>
   <g id="matplotlib.axis_1">
    <g id="xtick_1">
     <g id="line2d_1">
      <path d="M 108.617143 307.584 
L 108.617143 41.472 
" clip-path="url(#p6c5143a2dc)" style="fill: none; stroke: #808080; stroke-width: 0.8; stroke-linecap: square"/>
     </g>
     <g id="line2d_2">
      <defs>
       <path id="m7cb8121aa8" d="M 0 0 
L 0 3.5 
" style="stroke: #000000; stroke-width: 0.8"/>
      </defs>
      <g>
       <use xlink:href="#m7cb8121aa8" x="108.617143" y="307.584" style="stroke: #000000; stroke-width: 0.8"/>
      </g>
     </g>
     <g id="text_1">
      <!-- 0.1 -->
      <g transform="translate(98.711752 324.321812) scale(0.13 -0.13)">
       <defs>
        <path id="IPAexGothic-30" d="M 2038 4725 
Q 2881 4725 3334 3944 
Q 3694 3325 3694 2344 
Q 3694 1372 3334 741 
Q 2888 -31 2016 -31 
Q 1147 -31 700 741 
Q 341 1372 341 2350 
Q 341 3713 1000 4334 
Q 1419 4725 2038 4725 
z
M 2016 4266 
Q 1516 4266 1228 3759 
Q 934 3247 934 2344 
Q 934 1456 1222 947 
Q 1513 447 2016 447 
Q 2619 447 2909 1153 
Q 3100 1622 3100 2375 
Q 3100 3256 2806 3759 
Q 2509 4266 2016 4266 
z
" transform="scale(0.015625)"/>
        <path id="IPAexGothic-2e" d="M 1184 63 
L 494 63 
L 494 753 
L 1184 753 
L 1184 63 
z
" transform="scale(0.015625)"/>
        <path id="IPAexGothic-31" d="M 2463 63 
L 1900 63 
L 1900 4103 
Q 1372 3922 788 3797 
L 684 4231 
Q 1519 4441 2106 4731 
L 2463 4731 
L 2463 63 
z
" transform="scale(0.015625)"/>
       </defs>
       <use xlink:href="#IPAexGothic-30"/>
       <use xlink:href="#IPAexGothic-2e" x="62.988281"/>
       <use xlink:href="#IPAexGothic-31" x="89.404297"/>
      </g>
     </g>
    </g>
    <g id="xtick_2">
     <g id="line2d_3">
      <path d="M 183.276376 307.584 
L 183.276376 41.472 
" clip-path="url(#p6c5143a2dc)" style="fill: none; stroke: #808080; stroke-width: 0.8; stroke-linecap: square"/>
     </g>
     <g id="line2d_4">
      <g>
       <use xlink:href="#m7cb8121aa8" x="183.276376" y="307.584" style="stroke: #000000; stroke-width: 0.8"/>
      </g>
     </g>
     <g id="text_2">
      <!-- 0.2 -->
      <g transform="translate(173.370986 324.321812) scale(0.13 -0.13)">
       <defs>
        <path id="IPAexGothic-32" d="M 3659 63 
L 447 63 
L 447 594 
Q 825 1475 1894 2203 
L 2072 2322 
Q 2619 2697 2791 2906 
Q 2988 3153 2988 3444 
Q 2988 3772 2756 4003 
Q 2500 4259 2084 4259 
Q 1250 4259 991 3328 
L 497 3506 
Q 853 4725 2116 4725 
Q 2806 4725 3216 4316 
Q 3575 3947 3575 3425 
Q 3575 3038 3344 2722 
Q 3131 2416 2366 1938 
L 2231 1856 
Q 1256 1253 978 569 
L 3659 569 
L 3659 63 
z
" transform="scale(0.015625)"/>
       </defs>
       <use xlink:href="#IPAexGothic-30"/>
       <use xlink:href="#IPAexGothic-2e" x="62.988281"/>
       <use xlink:href="#IPAexGothic-32" x="89.404297"/>
      </g>
     </g>
    </g>
    <g id="xtick_3">
     <g id="line2d_5">
      <path d="M 257.93561 307.584 
L 257.93561 41.472 
" clip-path="url(#p6c5143a2dc)" style="fill: none; stroke: #808080; stroke-width: 0.8; stroke-linecap: square"/>
     </g>
     <g id="line2d_6">
      <g>
       <use xlink:href="#m7cb8121aa8" x="257.93561" y="307.584" style="stroke: #000000; stroke-width: 0.8"/>
      </g>
     </g>
     <g id="text_3">
      <!-- 0.3 -->
      <g transform="translate(248.030219 324.321812) scale(0.13 -0.13)">
       <defs>
        <path id="IPAexGothic-33" d="M 2381 2419 
Q 3506 2216 3506 1278 
Q 3506 716 3128 356 
Q 2709 -31 1944 -31 
Q 797 -31 288 881 
L 756 1131 
Q 1109 441 1938 441 
Q 2425 441 2694 691 
Q 2950 928 2950 1291 
Q 2950 1719 2566 1978 
Q 2216 2213 1644 2213 
L 1363 2213 
L 1363 2669 
L 1656 2669 
Q 2231 2669 2534 2888 
Q 2859 3119 2859 3509 
Q 2859 3934 2494 4138 
Q 2259 4278 1931 4278 
Q 1238 4278 903 3578 
L 434 3803 
Q 897 4725 1938 4725 
Q 2597 4725 3006 4394 
Q 3416 4069 3416 3534 
Q 3416 3028 3019 2706 
Q 2763 2500 2381 2444 
L 2381 2419 
z
" transform="scale(0.015625)"/>
       </defs>
       <use xlink:href="#IPAexGothic-30"/>
       <use xlink:href="#IPAexGothic-2e" x="62.988281"/>
       <use xlink:href="#IPAexGothic-33" x="89.404297"/>
      </g>
     </g>
    </g>
    <g id="xtick_4">
     <g id="line2d_7">
      <path d="M 332.594843 307.584 
L 332.594843 41.472 
" clip-path="url(#p6c5143a2dc)" style="fill: none; stroke: #808080; stroke-width: 0.8; stroke-linecap: square"/>
     </g>
     <g id="line2d_8">
      <g>
       <use xlink:href="#m7cb8121aa8" x="332.594843" y="307.584" style="stroke: #000000; stroke-width: 0.8"/>
      </g>
     </g>
     <g id="text_4">
      <!-- 0.4 -->
      <g transform="translate(322.689453 324.321812) scale(0.13 -0.13)">
       <defs>
        <path id="IPAexGothic-34" d="M 3813 1159 
L 3059 1159 
L 3059 63 
L 2547 63 
L 2547 1159 
L 197 1159 
L 197 1672 
L 2456 4678 
L 3059 4678 
L 3059 1634 
L 3813 1634 
L 3813 1159 
z
M 2578 4109 
L 2559 4109 
Q 2278 3656 2003 3284 
L 759 1634 
L 2547 1634 
L 2547 3144 
Q 2547 3481 2578 4109 
z
" transform="scale(0.015625)"/>
       </defs>
       <use xlink:href="#IPAexGothic-30"/>
       <use xlink:href="#IPAexGothic-2e" x="62.988281"/>
       <use xlink:href="#IPAexGothic-34" x="89.404297"/>
      </g>
     </g>
    </g>
    <g id="xtick_5">
     <g id="line2d_9">
      <path d="M 407.254077 307.584 
L 407.254077 41.472 
" clip-path="url(#p6c5143a2dc)" style="fill: none; stroke: #808080; stroke-width: 0.8; stroke-linecap: square"/>
     </g>
     <g id="line2d_10">
      <g>
       <use xlink:href="#m7cb8121aa8" x="407.254077" y="307.584" style="stroke: #000000; stroke-width: 0.8"/>
      </g>
     </g>
     <g id="text_5">
      <!-- 0.5 -->
      <g transform="translate(397.348686 324.321812) scale(0.13 -0.13)">
       <defs>
        <path id="IPAexGothic-35" d="M 1178 2603 
Q 1634 2963 2172 2963 
Q 2816 2963 3241 2528 
Q 3638 2113 3638 1497 
Q 3638 938 3297 513 
Q 2869 -31 2031 -31 
Q 959 -31 469 784 
L 938 1028 
Q 1309 434 2013 434 
Q 2466 434 2769 716 
Q 3081 1013 3081 1503 
Q 3081 1966 2806 2241 
Q 2519 2528 2056 2528 
Q 1406 2528 1072 2028 
L 591 2091 
L 884 4634 
L 3406 4634 
L 3406 4153 
L 1341 4153 
L 1134 2603 
L 1178 2603 
z
" transform="scale(0.015625)"/>
       </defs>
       <use xlink:href="#IPAexGothic-30"/>
       <use xlink:href="#IPAexGothic-2e" x="62.988281"/>
       <use xlink:href="#IPAexGothic-35" x="89.404297"/>
      </g>
     </g>
    </g>
    <g id="xtick_6">
     <g id="line2d_11">
      <path d="M 63.821603 307.584 
L 63.821603 41.472 
" clip-path="url(#p6c5143a2dc)" style="fill: none; stroke-dasharray: 0.8,1.32; stroke-dashoffset: 0; stroke: #d3d3d3; stroke-width: 0.8"/>
     </g>
     <g id="line2d_12">
      <defs>
       <path id="me576317549" d="M 0 0 
L 0 2 
" style="stroke: #000000; stroke-width: 0.6"/>
      </defs>
      <g>
       <use xlink:href="#me576317549" x="63.821603" y="307.584" style="stroke: #000000; stroke-width: 0.6"/>
      </g>
     </g>
    </g>
    <g id="xtick_7">
     <g id="line2d_13">
      <path d="M 78.753449 307.584 
L 78.753449 41.472 
" clip-path="url(#p6c5143a2dc)" style="fill: none; stroke-dasharray: 0.8,1.32; stroke-dashoffset: 0; stroke: #d3d3d3; stroke-width: 0.8"/>
     </g>
     <g id="line2d_14">
      <g>
       <use xlink:href="#me576317549" x="78.753449" y="307.584" style="stroke: #000000; stroke-width: 0.6"/>
      </g>
     </g>
    </g>
    <g id="xtick_8">
     <g id="line2d_15">
      <path d="M 93.685296 307.584 
L 93.685296 41.472 
" clip-path="url(#p6c5143a2dc)" style="fill: none; stroke-dasharray: 0.8,1.32; stroke-dashoffset: 0; stroke: #d3d3d3; stroke-width: 0.8"/>
     </g>
     <g id="line2d_16">
      <g>
       <use xlink:href="#me576317549" x="93.685296" y="307.584" style="stroke: #000000; stroke-width: 0.6"/>
      </g>
     </g>
    </g>
    <g id="xtick_9">
     <g id="line2d_17">
      <path d="M 123.54899 307.584 
L 123.54899 41.472 
" clip-path="url(#p6c5143a2dc)" style="fill: none; stroke-dasharray: 0.8,1.32; stroke-dashoffset: 0; stroke: #d3d3d3; stroke-width: 0.8"/>
     </g>
     <g id="line2d_18">
      <g>
       <use xlink:href="#me576317549" x="123.54899" y="307.584" style="stroke: #000000; stroke-width: 0.6"/>
      </g>
     </g>
    </g>
    <g id="xtick_10">
     <g id="line2d_19">
      <path d="M 138.480836 307.584 
L 138.480836 41.472 
" clip-path="url(#p6c5143a2dc)" style="fill: none; stroke-dasharray: 0.8,1.32; stroke-dashoffset: 0; stroke: #d3d3d3; stroke-width: 0.8"/>
     </g>
     <g id="line2d_20">
      <g>
       <use xlink:href="#me576317549" x="138.480836" y="307.584" style="stroke: #000000; stroke-width: 0.6"/>
      </g>
     </g>
    </g>
    <g id="xtick_11">
     <g id="line2d_21">
      <path d="M 153.412683 307.584 
L 153.412683 41.472 
" clip-path="url(#p6c5143a2dc)" style="fill: none; stroke-dasharray: 0.8,1.32; stroke-dashoffset: 0; stroke: #d3d3d3; stroke-width: 0.8"/>
     </g>
     <g id="line2d_22">
      <g>
       <use xlink:href="#me576317549" x="153.412683" y="307.584" style="stroke: #000000; stroke-width: 0.6"/>
      </g>
     </g>
    </g>
    <g id="xtick_12">
     <g id="line2d_23">
      <path d="M 168.34453 307.584 
L 168.34453 41.472 
" clip-path="url(#p6c5143a2dc)" style="fill: none; stroke-dasharray: 0.8,1.32; stroke-dashoffset: 0; stroke: #d3d3d3; stroke-width: 0.8"/>
     </g>
     <g id="line2d_24">
      <g>
       <use xlink:href="#me576317549" x="168.34453" y="307.584" style="stroke: #000000; stroke-width: 0.6"/>
      </g>
     </g>
    </g>
    <g id="xtick_13">
     <g id="line2d_25">
      <path d="M 198.208223 307.584 
L 198.208223 41.472 
" clip-path="url(#p6c5143a2dc)" style="fill: none; stroke-dasharray: 0.8,1.32; stroke-dashoffset: 0; stroke: #d3d3d3; stroke-width: 0.8"/>
     </g>
     <g id="line2d_26">
      <g>
       <use xlink:href="#me576317549" x="198.208223" y="307.584" style="stroke: #000000; stroke-width: 0.6"/>
      </g>
     </g>
    </g>
    <g id="xtick_14">
     <g id="line2d_27">
      <path d="M 213.14007 307.584 
L 213.14007 41.472 
" clip-path="url(#p6c5143a2dc)" style="fill: none; stroke-dasharray: 0.8,1.32; stroke-dashoffset: 0; stroke: #d3d3d3; stroke-width: 0.8"/>
     </g>
     <g id="line2d_28">
      <g>
       <use xlink:href="#me576317549" x="213.14007" y="307.584" style="stroke: #000000; stroke-width: 0.6"/>
      </g>
     </g>
    </g>
    <g id="xtick_15">
     <g id="line2d_29">
      <path d="M 228.071916 307.584 
L 228.071916 41.472 
" clip-path="url(#p6c5143a2dc)" style="fill: none; stroke-dasharray: 0.8,1.32; stroke-dashoffset: 0; stroke: #d3d3d3; stroke-width: 0.8"/>
     </g>
     <g id="line2d_30">
      <g>
       <use xlink:href="#me576317549" x="228.071916" y="307.584" style="stroke: #000000; stroke-width: 0.6"/>
      </g>
     </g>
    </g>
    <g id="xtick_16">
     <g id="line2d_31">
      <path d="M 243.003763 307.584 
L 243.003763 41.472 
" clip-path="url(#p6c5143a2dc)" style="fill: none; stroke-dasharray: 0.8,1.32; stroke-dashoffset: 0; stroke: #d3d3d3; stroke-width: 0.8"/>
     </g>
     <g id="line2d_32">
      <g>
       <use xlink:href="#me576317549" x="243.003763" y="307.584" style="stroke: #000000; stroke-width: 0.6"/>
      </g>
     </g>
    </g>
    <g id="xtick_17">
     <g id="line2d_33">
      <path d="M 272.867456 307.584 
L 272.867456 41.472 
" clip-path="url(#p6c5143a2dc)" style="fill: none; stroke-dasharray: 0.8,1.32; stroke-dashoffset: 0; stroke: #d3d3d3; stroke-width: 0.8"/>
     </g>
     <g id="line2d_34">
      <g>
       <use xlink:href="#me576317549" x="272.867456" y="307.584" style="stroke: #000000; stroke-width: 0.6"/>
      </g>
     </g>
    </g>
    <g id="xtick_18">
     <g id="line2d_35">
      <path d="M 287.799303 307.584 
L 287.799303 41.472 
" clip-path="url(#p6c5143a2dc)" style="fill: none; stroke-dasharray: 0.8,1.32; stroke-dashoffset: 0; stroke: #d3d3d3; stroke-width: 0.8"/>
     </g>
     <g id="line2d_36">
      <g>
       <use xlink:href="#me576317549" x="287.799303" y="307.584" style="stroke: #000000; stroke-width: 0.6"/>
      </g>
     </g>
    </g>
    <g id="xtick_19">
     <g id="line2d_37">
      <path d="M 302.73115 307.584 
L 302.73115 41.472 
" clip-path="url(#p6c5143a2dc)" style="fill: none; stroke-dasharray: 0.8,1.32; stroke-dashoffset: 0; stroke: #d3d3d3; stroke-width: 0.8"/>
     </g>
     <g id="line2d_38">
      <g>
       <use xlink:href="#me576317549" x="302.73115" y="307.584" style="stroke: #000000; stroke-width: 0.6"/>
      </g>
     </g>
    </g>
    <g id="xtick_20">
     <g id="line2d_39">
      <path d="M 317.662997 307.584 
L 317.662997 41.472 
" clip-path="url(#p6c5143a2dc)" style="fill: none; stroke-dasharray: 0.8,1.32; stroke-dashoffset: 0; stroke: #d3d3d3; stroke-width: 0.8"/>
     </g>
     <g id="line2d_40">
      <g>
       <use xlink:href="#me576317549" x="317.662997" y="307.584" style="stroke: #000000; stroke-width: 0.6"/>
      </g>
     </g>
    </g>
    <g id="xtick_21">
     <g id="line2d_41">
      <path d="M 347.52669 307.584 
L 347.52669 41.472 
" clip-path="url(#p6c5143a2dc)" style="fill: none; stroke-dasharray: 0.8,1.32; stroke-dashoffset: 0; stroke: #d3d3d3; stroke-width: 0.8"/>
     </g>
     <g id="line2d_42">
      <g>
       <use xlink:href="#me576317549" x="347.52669" y="307.584" style="stroke: #000000; stroke-width: 0.6"/>
      </g>
     </g>
    </g>
    <g id="xtick_22">
     <g id="line2d_43">
      <path d="M 362.458537 307.584 
L 362.458537 41.472 
" clip-path="url(#p6c5143a2dc)" style="fill: none; stroke-dasharray: 0.8,1.32; stroke-dashoffset: 0; stroke: #d3d3d3; stroke-width: 0.8"/>
     </g>
     <g id="line2d_44">
      <g>
       <use xlink:href="#me576317549" x="362.458537" y="307.584" style="stroke: #000000; stroke-width: 0.6"/>
      </g>
     </g>
    </g>
    <g id="xtick_23">
     <g id="line2d_45">
      <path d="M 377.390383 307.584 
L 377.390383 41.472 
" clip-path="url(#p6c5143a2dc)" style="fill: none; stroke-dasharray: 0.8,1.32; stroke-dashoffset: 0; stroke: #d3d3d3; stroke-width: 0.8"/>
     </g>
     <g id="line2d_46">
      <g>
       <use xlink:href="#me576317549" x="377.390383" y="307.584" style="stroke: #000000; stroke-width: 0.6"/>
      </g>
     </g>
    </g>
    <g id="xtick_24">
     <g id="line2d_47">
      <path d="M 392.32223 307.584 
L 392.32223 41.472 
" clip-path="url(#p6c5143a2dc)" style="fill: none; stroke-dasharray: 0.8,1.32; stroke-dashoffset: 0; stroke: #d3d3d3; stroke-width: 0.8"/>
     </g>
     <g id="line2d_48">
      <g>
       <use xlink:href="#me576317549" x="392.32223" y="307.584" style="stroke: #000000; stroke-width: 0.6"/>
      </g>
     </g>
    </g>
    <g id="text_6">
     <!-- Aメロの単語の一致率 -->
     <g transform="translate(163.881094 342.02775) scale(0.15 -0.15)">
      <defs>
       <path id="IPAexGothic-41" d="M 4056 63 
L 3444 63 
L 2938 1409 
L 1100 1409 
L 603 63 
L -6 63 
L 1806 4666 
L 2259 4666 
L 4056 63 
z
M 2778 1863 
L 2316 3078 
Q 2125 3588 2028 4000 
L 2009 4000 
Q 1897 3563 1716 3078 
L 1263 1863 
L 2778 1863 
z
" transform="scale(0.015625)"/>
       <path id="IPAexGothic-30e1" d="M 2041 3641 
Q 2678 3259 3359 2747 
Q 3906 3678 4281 4819 
L 4784 4609 
Q 4347 3384 3756 2425 
Q 4225 2031 4925 1369 
L 4544 972 
Q 4031 1519 3475 1997 
Q 2522 650 1259 -172 
L 863 206 
Q 2197 1006 3091 2328 
Q 2456 2844 1700 3263 
L 2041 3641 
z
" transform="scale(0.015625)"/>
       <path id="IPAexGothic-30ed" d="M 1147 4269 
L 5250 4269 
L 5250 172 
L 4725 172 
L 4725 569 
L 1672 569 
L 1672 172 
L 1147 172 
L 1147 4269 
z
M 1672 3781 
L 1672 1063 
L 4725 1063 
L 4725 3781 
L 1672 3781 
z
" transform="scale(0.015625)"/>
       <path id="IPAexGothic-306e" d="M 3119 469 
Q 5275 766 5275 2425 
Q 5275 3453 4413 3925 
Q 4041 4116 3547 4159 
Q 3394 2525 2850 1400 
Q 2322 306 1722 306 
Q 1384 306 1084 666 
Q 609 1244 609 2003 
Q 609 3025 1397 3794 
Q 2184 4563 3431 4563 
Q 4306 4563 4928 4122 
Q 5813 3506 5813 2425 
Q 5813 438 3431 6 
L 3119 469 
z
M 3053 4147 
Q 2378 4044 1891 3641 
Q 1097 2981 1097 1991 
Q 1097 1366 1434 978 
Q 1581 813 1719 813 
Q 2022 813 2416 1625 
Q 2909 2638 3053 4147 
z
" transform="scale(0.015625)"/>
       <path id="IPAexGothic-5358" d="M 5403 1709 
L 3413 1709 
L 3413 1119 
L 6044 1119 
L 6044 709 
L 3413 709 
L 3413 -450 
L 2938 -450 
L 2938 709 
L 353 709 
L 353 1119 
L 2938 1119 
L 2938 1709 
L 994 1709 
L 994 3950 
L 3853 3950 
Q 4294 4534 4641 5238 
L 5128 5013 
Q 4778 4428 4378 3950 
L 5403 3950 
L 5403 1709 
z
M 4947 2081 
L 4947 2675 
L 3400 2675 
L 3400 2081 
L 4947 2081 
z
M 4947 3028 
L 4947 3578 
L 3400 3578 
L 3400 3028 
L 4947 3028 
z
M 1447 3578 
L 1447 3028 
L 2956 3028 
L 2956 3578 
L 1447 3578 
z
M 1447 2675 
L 1447 2081 
L 2956 2081 
L 2956 2675 
L 1447 2675 
z
M 3003 4063 
Q 2853 4531 2559 5050 
L 2997 5241 
Q 3272 4834 3494 4250 
L 3003 4063 
z
M 1653 4031 
Q 1453 4563 1191 4959 
L 1625 5153 
Q 1903 4800 2144 4219 
L 1653 4031 
z
" transform="scale(0.015625)"/>
       <path id="IPAexGothic-8a9e" d="M 2388 1684 
L 2388 -128 
L 959 -128 
L 959 -447 
L 538 -447 
L 538 1684 
L 2388 1684 
z
M 959 1313 
L 959 244 
L 1966 244 
L 1966 1313 
L 959 1313 
z
M 4306 4659 
Q 4244 4128 4206 3903 
L 5459 3903 
L 5459 2606 
L 6106 2606 
L 6106 2222 
L 2541 2222 
L 2541 2606 
L 3522 2606 
Q 3528 2641 3688 3416 
L 3706 3531 
L 2881 3531 
L 2881 3903 
L 3769 3903 
Q 3775 3916 3775 3947 
Q 3831 4259 3884 4659 
L 2753 4659 
L 2753 5044 
L 5791 5044 
L 5791 4659 
L 4306 4659 
z
M 5044 3531 
L 4141 3531 
Q 4013 2834 3963 2606 
L 5044 2606 
L 5044 3531 
z
M 5606 1625 
L 5606 -447 
L 5178 -447 
L 5178 -134 
L 3419 -134 
L 3419 -453 
L 2991 -453 
L 2991 1625 
L 5606 1625 
z
M 3419 1253 
L 3419 238 
L 5178 238 
L 5178 1253 
L 3419 1253 
z
M 634 5044 
L 2294 5044 
L 2294 4659 
L 634 4659 
L 634 5044 
z
M 347 4206 
L 2550 4206 
L 2550 3816 
L 347 3816 
L 347 4206 
z
M 634 3359 
L 2294 3359 
L 2294 2975 
L 634 2975 
L 634 3359 
z
M 634 2522 
L 2294 2522 
L 2294 2138 
L 634 2138 
L 634 2522 
z
" transform="scale(0.015625)"/>
       <path id="IPAexGothic-4e00" d="M 513 2847 
L 5881 2847 
L 5881 2328 
L 513 2328 
L 513 2847 
z
" transform="scale(0.015625)"/>
       <path id="IPAexGothic-81f4" d="M 4366 1172 
Q 3966 1775 3738 2656 
Q 3603 2344 3431 2034 
L 3106 2425 
Q 3678 3463 3919 5284 
L 4366 5197 
Q 4278 4572 4194 4191 
L 5966 4191 
L 5966 3769 
L 5500 3769 
Q 5394 2288 4866 1203 
Q 5400 531 6138 75 
L 5819 -378 
Q 5147 150 4628 794 
Q 4166 81 3328 -463 
L 3022 -78 
Q 3897 413 4366 1172 
z
M 4591 1606 
Q 4931 2400 5056 3769 
L 4097 3769 
Q 4066 3616 3975 3309 
Q 4150 2334 4591 1606 
z
M 1928 4475 
Q 1666 3716 1422 3175 
L 1519 3188 
Q 2022 3241 2588 3334 
Q 2428 3628 2172 4022 
L 2528 4194 
Q 2981 3569 3284 2900 
L 2900 2656 
Q 2797 2913 2747 3016 
Q 1884 2800 559 2684 
L 419 3100 
Q 547 3103 922 3131 
L 956 3138 
Q 1275 3828 1459 4475 
L 419 4475 
L 419 4891 
L 3388 4891 
L 3388 4475 
L 1928 4475 
z
M 1684 1875 
L 1684 2578 
L 2125 2578 
L 2125 1875 
L 3206 1875 
L 3206 1472 
L 2125 1472 
L 2125 556 
Q 2903 734 3444 897 
L 3463 513 
Q 1994 41 519 -231 
L 341 213 
Q 966 316 1684 459 
L 1684 1472 
L 572 1472 
L 572 1875 
L 1684 1875 
z
" transform="scale(0.015625)"/>
       <path id="IPAexGothic-7387" d="M 3022 2847 
Q 3338 3231 3684 3744 
L 4053 3525 
Q 3506 2766 2919 2181 
L 3266 2200 
Q 3575 2209 3825 2234 
Q 3728 2406 3575 2616 
L 3913 2772 
Q 4244 2350 4541 1766 
L 4156 1547 
Q 4084 1753 3997 1913 
L 3856 1894 
Q 3709 1875 3416 1850 
L 3416 1228 
L 6084 1228 
L 6084 819 
L 3416 819 
L 3416 -447 
L 2941 -447 
L 2941 819 
L 322 819 
L 322 1228 
L 2941 1228 
L 2941 1803 
L 2881 1797 
Q 2306 1759 2031 1747 
L 1903 2163 
Q 2319 2163 2416 2169 
Q 2522 2269 2772 2553 
Q 2347 3028 1916 3347 
L 2184 3653 
L 2447 3425 
Q 2681 3744 2869 4128 
L 547 4128 
L 547 4525 
L 2941 4525 
L 2941 5313 
L 3416 5313 
L 3416 4525 
L 5853 4525 
L 5853 4128 
L 2972 4128 
L 3278 3981 
Q 2991 3509 2697 3188 
Q 2850 3041 3022 2847 
z
M 1497 2822 
Q 1128 3263 691 3566 
L 1000 3847 
Q 1409 3588 1831 3156 
L 1497 2822 
z
M 4219 3078 
Q 4794 3478 5147 3897 
L 5538 3616 
Q 5078 3178 4494 2803 
L 4219 3078 
z
M 5556 1631 
Q 4997 2109 4372 2444 
L 4659 2741 
Q 5356 2381 5894 1984 
L 5556 1631 
z
M 538 1925 
Q 1306 2297 1881 2803 
L 2075 2456 
Q 1622 2034 813 1528 
L 538 1925 
z
" transform="scale(0.015625)"/>
      </defs>
      <use xlink:href="#IPAexGothic-41"/>
      <use xlink:href="#IPAexGothic-30e1" x="63.720703"/>
      <use xlink:href="#IPAexGothic-30ed" x="163.720703"/>
      <use xlink:href="#IPAexGothic-306e" x="263.720703"/>
      <use xlink:href="#IPAexGothic-5358" x="363.720703"/>
      <use xlink:href="#IPAexGothic-8a9e" x="463.720703"/>
      <use xlink:href="#IPAexGothic-306e" x="563.720703"/>
      <use xlink:href="#IPAexGothic-4e00" x="663.720703"/>
      <use xlink:href="#IPAexGothic-81f4" x="763.720703"/>
      <use xlink:href="#IPAexGothic-7387" x="863.720703"/>
     </g>
    </g>
   </g>
   <g id="matplotlib.axis_2">
    <g id="ytick_1">
     <g id="line2d_49">
      <path d="M 57.6 269.568 
L 414.72 269.568 
" clip-path="url(#p6c5143a2dc)" style="fill: none; stroke: #808080; stroke-width: 0.8; stroke-linecap: square"/>
     </g>
     <g id="line2d_50">
      <defs>
       <path id="m12f34132b1" d="M 0 0 
L -3.5 0 
" style="stroke: #000000; stroke-width: 0.8"/>
      </defs>
      <g>
       <use xlink:href="#m12f34132b1" x="57.6" y="269.568" style="stroke: #000000; stroke-width: 0.8"/>
      </g>
     </g>
     <g id="text_7">
      <!-- 0.1 -->
      <g transform="translate(30.789219 274.436906) scale(0.13 -0.13)">
       <use xlink:href="#IPAexGothic-30"/>
       <use xlink:href="#IPAexGothic-2e" x="62.988281"/>
       <use xlink:href="#IPAexGothic-31" x="89.404297"/>
      </g>
     </g>
    </g>
    <g id="ytick_2">
     <g id="line2d_51">
      <path d="M 57.6 213.934829 
L 414.72 213.934829 
" clip-path="url(#p6c5143a2dc)" style="fill: none; stroke: #808080; stroke-width: 0.8; stroke-linecap: square"/>
     </g>
     <g id="line2d_52">
      <g>
       <use xlink:href="#m12f34132b1" x="57.6" y="213.934829" style="stroke: #000000; stroke-width: 0.8"/>
      </g>
     </g>
     <g id="text_8">
      <!-- 0.2 -->
      <g transform="translate(30.789219 218.803736) scale(0.13 -0.13)">
       <use xlink:href="#IPAexGothic-30"/>
       <use xlink:href="#IPAexGothic-2e" x="62.988281"/>
       <use xlink:href="#IPAexGothic-32" x="89.404297"/>
      </g>
     </g>
    </g>
    <g id="ytick_3">
     <g id="line2d_53">
      <path d="M 57.6 158.301659 
L 414.72 158.301659 
" clip-path="url(#p6c5143a2dc)" style="fill: none; stroke: #808080; stroke-width: 0.8; stroke-linecap: square"/>
     </g>
     <g id="line2d_54">
      <g>
       <use xlink:href="#m12f34132b1" x="57.6" y="158.301659" style="stroke: #000000; stroke-width: 0.8"/>
      </g>
     </g>
     <g id="text_9">
      <!-- 0.3 -->
      <g transform="translate(30.789219 163.170565) scale(0.13 -0.13)">
       <use xlink:href="#IPAexGothic-30"/>
       <use xlink:href="#IPAexGothic-2e" x="62.988281"/>
       <use xlink:href="#IPAexGothic-33" x="89.404297"/>
      </g>
     </g>
    </g>
    <g id="ytick_4">
     <g id="line2d_55">
      <path d="M 57.6 102.668488 
L 414.72 102.668488 
" clip-path="url(#p6c5143a2dc)" style="fill: none; stroke: #808080; stroke-width: 0.8; stroke-linecap: square"/>
     </g>
     <g id="line2d_56">
      <g>
       <use xlink:href="#m12f34132b1" x="57.6" y="102.668488" style="stroke: #000000; stroke-width: 0.8"/>
      </g>
     </g>
     <g id="text_10">
      <!-- 0.4 -->
      <g transform="translate(30.789219 107.537394) scale(0.13 -0.13)">
       <use xlink:href="#IPAexGothic-30"/>
       <use xlink:href="#IPAexGothic-2e" x="62.988281"/>
       <use xlink:href="#IPAexGothic-34" x="89.404297"/>
      </g>
     </g>
    </g>
    <g id="ytick_5">
     <g id="line2d_57">
      <path d="M 57.6 47.035317 
L 414.72 47.035317 
" clip-path="url(#p6c5143a2dc)" style="fill: none; stroke: #808080; stroke-width: 0.8; stroke-linecap: square"/>
     </g>
     <g id="line2d_58">
      <g>
       <use xlink:href="#m12f34132b1" x="57.6" y="47.035317" style="stroke: #000000; stroke-width: 0.8"/>
      </g>
     </g>
     <g id="text_11">
      <!-- 0.5 -->
      <g transform="translate(30.789219 51.904223) scale(0.13 -0.13)">
       <use xlink:href="#IPAexGothic-30"/>
       <use xlink:href="#IPAexGothic-2e" x="62.988281"/>
       <use xlink:href="#IPAexGothic-35" x="89.404297"/>
      </g>
     </g>
    </g>
    <g id="ytick_6">
     <g id="line2d_59">
      <path d="M 57.6 302.947902 
L 414.72 302.947902 
" clip-path="url(#p6c5143a2dc)" style="fill: none; stroke-dasharray: 0.8,1.32; stroke-dashoffset: 0; stroke: #d3d3d3; stroke-width: 0.8"/>
     </g>
     <g id="line2d_60">
      <defs>
       <path id="mf3f65acea3" d="M 0 0 
L -2 0 
" style="stroke: #000000; stroke-width: 0.6"/>
      </defs>
      <g>
       <use xlink:href="#mf3f65acea3" x="57.6" y="302.947902" style="stroke: #000000; stroke-width: 0.6"/>
      </g>
     </g>
    </g>
    <g id="ytick_7">
     <g id="line2d_61">
      <path d="M 57.6 291.821268 
L 414.72 291.821268 
" clip-path="url(#p6c5143a2dc)" style="fill: none; stroke-dasharray: 0.8,1.32; stroke-dashoffset: 0; stroke: #d3d3d3; stroke-width: 0.8"/>
     </g>
     <g id="line2d_62">
      <g>
       <use xlink:href="#mf3f65acea3" x="57.6" y="291.821268" style="stroke: #000000; stroke-width: 0.6"/>
      </g>
     </g>
    </g>
    <g id="ytick_8">
     <g id="line2d_63">
      <path d="M 57.6 280.694634 
L 414.72 280.694634 
" clip-path="url(#p6c5143a2dc)" style="fill: none; stroke-dasharray: 0.8,1.32; stroke-dashoffset: 0; stroke: #d3d3d3; stroke-width: 0.8"/>
     </g>
     <g id="line2d_64">
      <g>
       <use xlink:href="#mf3f65acea3" x="57.6" y="280.694634" style="stroke: #000000; stroke-width: 0.6"/>
      </g>
     </g>
    </g>
    <g id="ytick_9">
     <g id="line2d_65">
      <path d="M 57.6 258.441366 
L 414.72 258.441366 
" clip-path="url(#p6c5143a2dc)" style="fill: none; stroke-dasharray: 0.8,1.32; stroke-dashoffset: 0; stroke: #d3d3d3; stroke-width: 0.8"/>
     </g>
     <g id="line2d_66">
      <g>
       <use xlink:href="#mf3f65acea3" x="57.6" y="258.441366" style="stroke: #000000; stroke-width: 0.6"/>
      </g>
     </g>
    </g>
    <g id="ytick_10">
     <g id="line2d_67">
      <path d="M 57.6 247.314732 
L 414.72 247.314732 
" clip-path="url(#p6c5143a2dc)" style="fill: none; stroke-dasharray: 0.8,1.32; stroke-dashoffset: 0; stroke: #d3d3d3; stroke-width: 0.8"/>
     </g>
     <g id="line2d_68">
      <g>
       <use xlink:href="#mf3f65acea3" x="57.6" y="247.314732" style="stroke: #000000; stroke-width: 0.6"/>
      </g>
     </g>
    </g>
    <g id="ytick_11">
     <g id="line2d_69">
      <path d="M 57.6 236.188098 
L 414.72 236.188098 
" clip-path="url(#p6c5143a2dc)" style="fill: none; stroke-dasharray: 0.8,1.32; stroke-dashoffset: 0; stroke: #d3d3d3; stroke-width: 0.8"/>
     </g>
     <g id="line2d_70">
      <g>
       <use xlink:href="#mf3f65acea3" x="57.6" y="236.188098" style="stroke: #000000; stroke-width: 0.6"/>
      </g>
     </g>
    </g>
    <g id="ytick_12">
     <g id="line2d_71">
      <path d="M 57.6 225.061463 
L 414.72 225.061463 
" clip-path="url(#p6c5143a2dc)" style="fill: none; stroke-dasharray: 0.8,1.32; stroke-dashoffset: 0; stroke: #d3d3d3; stroke-width: 0.8"/>
     </g>
     <g id="line2d_72">
      <g>
       <use xlink:href="#mf3f65acea3" x="57.6" y="225.061463" style="stroke: #000000; stroke-width: 0.6"/>
      </g>
     </g>
    </g>
    <g id="ytick_13">
     <g id="line2d_73">
      <path d="M 57.6 202.808195 
L 414.72 202.808195 
" clip-path="url(#p6c5143a2dc)" style="fill: none; stroke-dasharray: 0.8,1.32; stroke-dashoffset: 0; stroke: #d3d3d3; stroke-width: 0.8"/>
     </g>
     <g id="line2d_74">
      <g>
       <use xlink:href="#mf3f65acea3" x="57.6" y="202.808195" style="stroke: #000000; stroke-width: 0.6"/>
      </g>
     </g>
    </g>
    <g id="ytick_14">
     <g id="line2d_75">
      <path d="M 57.6 191.681561 
L 414.72 191.681561 
" clip-path="url(#p6c5143a2dc)" style="fill: none; stroke-dasharray: 0.8,1.32; stroke-dashoffset: 0; stroke: #d3d3d3; stroke-width: 0.8"/>
     </g>
     <g id="line2d_76">
      <g>
       <use xlink:href="#mf3f65acea3" x="57.6" y="191.681561" style="stroke: #000000; stroke-width: 0.6"/>
      </g>
     </g>
    </g>
    <g id="ytick_15">
     <g id="line2d_77">
      <path d="M 57.6 180.554927 
L 414.72 180.554927 
" clip-path="url(#p6c5143a2dc)" style="fill: none; stroke-dasharray: 0.8,1.32; stroke-dashoffset: 0; stroke: #d3d3d3; stroke-width: 0.8"/>
     </g>
     <g id="line2d_78">
      <g>
       <use xlink:href="#mf3f65acea3" x="57.6" y="180.554927" style="stroke: #000000; stroke-width: 0.6"/>
      </g>
     </g>
    </g>
    <g id="ytick_16">
     <g id="line2d_79">
      <path d="M 57.6 169.428293 
L 414.72 169.428293 
" clip-path="url(#p6c5143a2dc)" style="fill: none; stroke-dasharray: 0.8,1.32; stroke-dashoffset: 0; stroke: #d3d3d3; stroke-width: 0.8"/>
     </g>
     <g id="line2d_80">
      <g>
       <use xlink:href="#mf3f65acea3" x="57.6" y="169.428293" style="stroke: #000000; stroke-width: 0.6"/>
      </g>
     </g>
    </g>
    <g id="ytick_17">
     <g id="line2d_81">
      <path d="M 57.6 147.175024 
L 414.72 147.175024 
" clip-path="url(#p6c5143a2dc)" style="fill: none; stroke-dasharray: 0.8,1.32; stroke-dashoffset: 0; stroke: #d3d3d3; stroke-width: 0.8"/>
     </g>
     <g id="line2d_82">
      <g>
       <use xlink:href="#mf3f65acea3" x="57.6" y="147.175024" style="stroke: #000000; stroke-width: 0.6"/>
      </g>
     </g>
    </g>
    <g id="ytick_18">
     <g id="line2d_83">
      <path d="M 57.6 136.04839 
L 414.72 136.04839 
" clip-path="url(#p6c5143a2dc)" style="fill: none; stroke-dasharray: 0.8,1.32; stroke-dashoffset: 0; stroke: #d3d3d3; stroke-width: 0.8"/>
     </g>
     <g id="line2d_84">
      <g>
       <use xlink:href="#mf3f65acea3" x="57.6" y="136.04839" style="stroke: #000000; stroke-width: 0.6"/>
      </g>
     </g>
    </g>
    <g id="ytick_19">
     <g id="line2d_85">
      <path d="M 57.6 124.921756 
L 414.72 124.921756 
" clip-path="url(#p6c5143a2dc)" style="fill: none; stroke-dasharray: 0.8,1.32; stroke-dashoffset: 0; stroke: #d3d3d3; stroke-width: 0.8"/>
     </g>
     <g id="line2d_86">
      <g>
       <use xlink:href="#mf3f65acea3" x="57.6" y="124.921756" style="stroke: #000000; stroke-width: 0.6"/>
      </g>
     </g>
    </g>
    <g id="ytick_20">
     <g id="line2d_87">
      <path d="M 57.6 113.795122 
L 414.72 113.795122 
" clip-path="url(#p6c5143a2dc)" style="fill: none; stroke-dasharray: 0.8,1.32; stroke-dashoffset: 0; stroke: #d3d3d3; stroke-width: 0.8"/>
     </g>
     <g id="line2d_88">
      <g>
       <use xlink:href="#mf3f65acea3" x="57.6" y="113.795122" style="stroke: #000000; stroke-width: 0.6"/>
      </g>
     </g>
    </g>
    <g id="ytick_21">
     <g id="line2d_89">
      <path d="M 57.6 91.541854 
L 414.72 91.541854 
" clip-path="url(#p6c5143a2dc)" style="fill: none; stroke-dasharray: 0.8,1.32; stroke-dashoffset: 0; stroke: #d3d3d3; stroke-width: 0.8"/>
     </g>
     <g id="line2d_90">
      <g>
       <use xlink:href="#mf3f65acea3" x="57.6" y="91.541854" style="stroke: #000000; stroke-width: 0.6"/>
      </g>
     </g>
    </g>
    <g id="ytick_22">
     <g id="line2d_91">
      <path d="M 57.6 80.41522 
L 414.72 80.41522 
" clip-path="url(#p6c5143a2dc)" style="fill: none; stroke-dasharray: 0.8,1.32; stroke-dashoffset: 0; stroke: #d3d3d3; stroke-width: 0.8"/>
     </g>
     <g id="line2d_92">
      <g>
       <use xlink:href="#mf3f65acea3" x="57.6" y="80.41522" style="stroke: #000000; stroke-width: 0.6"/>
      </g>
     </g>
    </g>
    <g id="ytick_23">
     <g id="line2d_93">
      <path d="M 57.6 69.288585 
L 414.72 69.288585 
" clip-path="url(#p6c5143a2dc)" style="fill: none; stroke-dasharray: 0.8,1.32; stroke-dashoffset: 0; stroke: #d3d3d3; stroke-width: 0.8"/>
     </g>
     <g id="line2d_94">
      <g>
       <use xlink:href="#mf3f65acea3" x="57.6" y="69.288585" style="stroke: #000000; stroke-width: 0.6"/>
      </g>
     </g>
    </g>
    <g id="ytick_24">
     <g id="line2d_95">
      <path d="M 57.6 58.161951 
L 414.72 58.161951 
" clip-path="url(#p6c5143a2dc)" style="fill: none; stroke-dasharray: 0.8,1.32; stroke-dashoffset: 0; stroke: #d3d3d3; stroke-width: 0.8"/>
     </g>
     <g id="line2d_96">
      <g>
       <use xlink:href="#mf3f65acea3" x="57.6" y="58.161951" style="stroke: #000000; stroke-width: 0.6"/>
      </g>
     </g>
    </g>
    <g id="text_12">
     <!-- サビの単語の一致率 -->
     <g transform="translate(23.939219 242.028) rotate(-90) scale(0.15 -0.15)">
      <defs>
       <path id="IPAexGothic-30b5" d="M 3994 4919 
L 4506 4919 
L 4506 3531 
L 5888 3531 
L 5888 3072 
L 4506 3072 
Q 4488 1719 4153 1063 
Q 3728 222 2644 -325 
L 2266 38 
Q 3325 525 3713 1319 
Q 3975 1853 3994 3072 
L 2331 3072 
L 2331 1575 
L 1819 1575 
L 1819 3072 
L 513 3072 
L 513 3531 
L 1819 3531 
L 1819 4797 
L 2331 4797 
L 2331 3531 
L 3994 3531 
L 3994 4919 
z
" transform="scale(0.015625)"/>
       <path id="IPAexGothic-30d3" d="M 1356 4775 
L 1881 4775 
L 1881 2778 
Q 3553 3153 4747 3891 
L 5131 3475 
Q 3644 2681 1881 2297 
L 1881 1063 
Q 1881 744 2072 669 
Q 2266 584 3163 584 
Q 4169 584 5394 716 
L 5394 206 
Q 4259 97 3263 97 
Q 1938 97 1644 294 
Q 1356 478 1356 966 
L 1356 4775 
z
M 5972 4250 
Q 5609 4791 5216 5119 
L 5516 5350 
Q 5900 5041 6291 4525 
L 5972 4250 
z
M 5375 3781 
Q 5084 4272 4641 4672 
L 4953 4916 
Q 5325 4606 5709 4056 
L 5375 3781 
z
" transform="scale(0.015625)"/>
      </defs>
      <use xlink:href="#IPAexGothic-30b5"/>
      <use xlink:href="#IPAexGothic-30d3" x="100"/>
      <use xlink:href="#IPAexGothic-306e" x="200"/>
      <use xlink:href="#IPAexGothic-5358" x="300"/>
      <use xlink:href="#IPAexGothic-8a9e" x="400"/>
      <use xlink:href="#IPAexGothic-306e" x="500"/>
      <use xlink:href="#IPAexGothic-4e00" x="600"/>
      <use xlink:href="#IPAexGothic-81f4" x="700"/>
      <use xlink:href="#IPAexGothic-7387" x="800"/>
     </g>
    </g>
   </g>
   <g id="patch_3">
    <path d="M 57.6 307.584 
L 57.6 41.472 
" style="fill: none; stroke: #000000; stroke-width: 0.8; stroke-linejoin: miter; stroke-linecap: square"/>
   </g>
   <g id="patch_4">
    <path d="M 414.72 307.584 
L 414.72 41.472 
" style="fill: none; stroke: #000000; stroke-width: 0.8; stroke-linejoin: miter; stroke-linecap: square"/>
   </g>
   <g id="patch_5">
    <path d="M 57.6 307.584 
L 414.72 307.584 
" style="fill: none; stroke: #000000; stroke-width: 0.8; stroke-linejoin: miter; stroke-linecap: square"/>
   </g>
   <g id="patch_6">
    <path d="M 57.6 41.472 
L 414.72 41.472 
" style="fill: none; stroke: #000000; stroke-width: 0.8; stroke-linejoin: miter; stroke-linecap: square"/>
   </g>
   <g id="legend_1">
    <g id="patch_7">
     <path d="M 311.22 96.643875 
L 404.22 96.643875 
Q 407.22 96.643875 407.22 93.643875 
L 407.22 51.972 
Q 407.22 48.972 404.22 48.972 
L 311.22 48.972 
Q 308.22 48.972 308.22 51.972 
L 308.22 93.643875 
Q 308.22 96.643875 311.22 96.643875 
z
" style="fill: #ffffff; opacity: 0.8; stroke: #cccccc; stroke-linejoin: miter"/>
    </g>
    <g id="PathCollection_3">
     <g>
      <use xlink:href="#m3cb336d4ff" x="329.22" y="62.270437" style="fill: #0000ff; stroke: #0000ff"/>
     </g>
    </g>
    <g id="text_13">
     <!-- 人気曲 -->
     <g transform="translate(356.22 66.207937) scale(0.15 -0.15)">
      <defs>
       <path id="IPAexGothic-4eba" d="M 3434 5081 
L 3434 4659 
Q 3434 3131 4050 2069 
Q 4669 994 6022 275 
L 5644 -197 
Q 4359 588 3641 1863 
Q 3394 2300 3225 3009 
Q 2822 766 819 -325 
L 441 97 
Q 1856 759 2438 1972 
Q 2919 2959 2919 4634 
L 2919 5081 
L 3434 5081 
z
" transform="scale(0.015625)"/>
       <path id="IPAexGothic-6c17" d="M 1863 4659 
L 5594 4659 
L 5594 4263 
L 1672 4263 
Q 1306 3572 831 3059 
L 531 3397 
Q 1266 4181 1600 5288 
L 2069 5203 
Q 1981 4941 1863 4659 
z
M 5000 2950 
L 5006 2400 
Q 5025 1044 5222 466 
Q 5328 184 5394 184 
Q 5513 184 5638 1191 
L 6047 916 
Q 5847 -450 5422 -450 
Q 5128 -450 4856 147 
Q 4550 819 4550 2381 
L 4550 2553 
L 672 2553 
L 672 2950 
L 5000 2950 
z
M 2388 1106 
Q 1741 1553 1069 1875 
L 1350 2188 
Q 1991 1878 2606 1478 
L 2669 1441 
Q 3034 1894 3250 2431 
L 3681 2241 
Q 3403 1634 3047 1184 
Q 3672 744 4269 231 
L 3944 -128 
Q 3384 391 2759 844 
Q 2031 50 928 -372 
L 653 31 
Q 1728 403 2356 1069 
L 2388 1106 
z
M 1516 3822 
L 4991 3822 
L 4991 3425 
L 1516 3425 
L 1516 3822 
z
" transform="scale(0.015625)"/>
       <path id="IPAexGothic-66f2" d="M 2200 4128 
L 2200 5153 
L 2669 5153 
L 2669 4128 
L 3703 4128 
L 3703 5153 
L 4172 5153 
L 4172 4128 
L 5716 4128 
L 5716 -397 
L 5247 -397 
L 5247 -97 
L 1138 -97 
L 1138 -397 
L 678 -397 
L 678 4128 
L 2200 4128 
z
M 1138 3706 
L 1138 2284 
L 2216 2284 
L 2216 3706 
L 1138 3706 
z
M 1138 1875 
L 1138 319 
L 2216 319 
L 2216 1875 
L 1138 1875 
z
M 2656 3706 
L 2656 2284 
L 3719 2284 
L 3719 3706 
L 2656 3706 
z
M 2656 1875 
L 2656 319 
L 3719 319 
L 3719 1875 
L 2656 1875 
z
M 4159 3706 
L 4159 2284 
L 5247 2284 
L 5247 3706 
L 4159 3706 
z
M 4159 1875 
L 4159 319 
L 5247 319 
L 5247 1875 
L 4159 1875 
z
" transform="scale(0.015625)"/>
      </defs>
      <use xlink:href="#IPAexGothic-4eba"/>
      <use xlink:href="#IPAexGothic-6c17" x="100"/>
      <use xlink:href="#IPAexGothic-66f2" x="200"/>
     </g>
    </g>
    <g id="PathCollection_4">
     <g>
      <use xlink:href="#me575431c66" x="329.22" y="83.856375" style="fill: #ff0000; stroke: #ff0000"/>
     </g>
    </g>
    <g id="text_14">
     <!-- 普通曲 -->
     <g transform="translate(356.22 87.793875) scale(0.15 -0.15)">
      <defs>
       <path id="IPAexGothic-666e" d="M 2363 4116 
L 609 4116 
L 609 4500 
L 2178 4500 
Q 2009 4781 1759 5081 
L 2191 5275 
Q 2472 4875 2669 4500 
L 3681 4500 
Q 3953 4866 4122 5294 
L 4591 5128 
Q 4341 4719 4166 4500 
L 5794 4500 
L 5794 4116 
L 3994 4116 
L 3994 2803 
L 6041 2803 
L 6041 2413 
L 353 2413 
L 353 2803 
L 2363 2803 
L 2363 4116 
z
M 2797 4116 
L 2797 2803 
L 3559 2803 
L 3559 4116 
L 2797 4116 
z
M 5203 1997 
L 5203 -447 
L 4744 -447 
L 4744 -159 
L 1650 -159 
L 1650 -447 
L 1184 -447 
L 1184 1997 
L 5203 1997 
z
M 1650 1638 
L 1650 1109 
L 4744 1109 
L 4744 1638 
L 1650 1638 
z
M 1650 756 
L 1650 200 
L 4744 200 
L 4744 756 
L 1650 756 
z
M 4366 3022 
Q 4666 3525 4853 4072 
L 5288 3884 
Q 4975 3188 4744 2841 
L 4366 3022 
z
M 1575 2847 
Q 1306 3509 1056 3866 
L 1447 4063 
Q 1769 3578 1984 3059 
L 1575 2847 
z
" transform="scale(0.015625)"/>
       <path id="IPAexGothic-901a" d="M 1697 728 
Q 1906 453 2209 306 
Q 2650 94 3897 94 
Q 4725 94 6125 166 
Q 6025 -41 5978 -300 
Q 4844 -341 4269 -341 
Q 2931 -341 2394 -188 
Q 1781 -25 1509 384 
Q 1191 -9 647 -453 
L 366 13 
Q 897 338 1256 659 
L 1256 2303 
L 372 2303 
L 372 2731 
L 1697 2731 
L 1697 728 
z
M 4094 3763 
Q 3397 4138 2816 4366 
L 3103 4622 
Q 3475 4475 3928 4269 
Q 4488 4531 4728 4691 
L 2253 4691 
L 2253 5050 
L 5269 5050 
L 5491 4806 
Q 4938 4416 4294 4088 
L 4363 4056 
Q 4503 3988 4556 3953 
L 4281 3763 
L 5653 3763 
L 5653 813 
Q 5653 381 5209 381 
Q 4863 381 4594 441 
L 4525 863 
Q 4847 791 5081 791 
Q 5228 791 5228 959 
L 5228 1541 
L 4153 1541 
L 4153 459 
L 3744 459 
L 3744 1541 
L 2734 1541 
L 2734 394 
L 2319 394 
L 2319 3763 
L 4094 3763 
z
M 2734 3403 
L 2734 2834 
L 3744 2834 
L 3744 3403 
L 2734 3403 
z
M 2734 2481 
L 2734 1894 
L 3744 1894 
L 3744 2481 
L 2734 2481 
z
M 5228 1894 
L 5228 2481 
L 4153 2481 
L 4153 1894 
L 5228 1894 
z
M 5228 2834 
L 5228 3403 
L 4153 3403 
L 4153 2834 
L 5228 2834 
z
M 1516 3775 
Q 1050 4350 556 4728 
L 863 5050 
Q 1450 4591 1856 4128 
L 1516 3775 
z
" transform="scale(0.015625)"/>
      </defs>
      <use xlink:href="#IPAexGothic-666e"/>
      <use xlink:href="#IPAexGothic-901a" x="100"/>
      <use xlink:href="#IPAexGothic-66f2" x="200"/>
     </g>
    </g>
   </g>
  </g>
 </g>
 <defs>
  <clipPath id="p6c5143a2dc">
   <rect x="57.6" y="41.472" width="357.12" height="266.112"/>
  </clipPath>
 </defs>
</svg>
