<?xml version="1.0" encoding="utf-8" standalone="no"?>
<!DOCTYPE svg PUBLIC "-//W3C//DTD SVG 1.1//EN"
  "http://www.w3.org/Graphics/SVG/1.1/DTD/svg11.dtd">
<svg xmlns:xlink="http://www.w3.org/1999/xlink" width="460.8pt" height="345.6pt" viewBox="0 0 460.8 345.6" xmlns="http://www.w3.org/2000/svg" version="1.1">
 <metadata>
  <rdf:RDF xmlns:dc="http://purl.org/dc/elements/1.1/" xmlns:cc="http://creativecommons.org/ns#" xmlns:rdf="http://www.w3.org/1999/02/22-rdf-syntax-ns#">
   <cc:Work>
    <dc:type rdf:resource="http://purl.org/dc/dcmitype/StillImage"/>
    <dc:date>2024-02-18T15:43:37.126020</dc:date>
    <dc:format>image/svg+xml</dc:format>
    <dc:creator>
     <cc:Agent>
      <dc:title>Matplotlib v3.7.2, https://matplotlib.org/</dc:title>
     </cc:Agent>
    </dc:creator>
   </cc:Work>
  </rdf:RDF>
 </metadata>
 <defs>
  <style type="text/css">*{stroke-linejoin: round; stroke-linecap: butt}</style>
 </defs>
 <g id="figure_1">
  <g id="patch_1">
   <path d="M 0 345.6 
L 460.8 345.6 
L 460.8 0 
L 0 0 
z
" style="fill: #ffffff"/>
  </g>
  <g id="axes_1">
   <g id="patch_2">
    <path d="M 57.6 307.584 
L 414.72 307.584 
L 414.72 41.472 
L 57.6 41.472 
z
" style="fill: #ffffff"/>
   </g>
   <g id="patch_3">
    <path d="M 57.600008 307.584 
L 62.612217 307.584 
L 62.612217 54.144 
L 57.600008 54.144 
z
" clip-path="url(#p225ba656f5)" style="fill: #ff0000; opacity: 0.5"/>
   </g>
   <g id="patch_4">
    <path d="M 62.612217 307.584 
L 67.624427 307.584 
L 67.624427 297.4464 
L 62.612217 297.4464 
z
" clip-path="url(#p225ba656f5)" style="fill: #ff0000; opacity: 0.5"/>
   </g>
   <g id="patch_5">
    <path d="M 67.624427 307.584 
L 72.636637 307.584 
L 72.636637 297.4464 
L 67.624427 297.4464 
z
" clip-path="url(#p225ba656f5)" style="fill: #ff0000; opacity: 0.5"/>
   </g>
   <g id="patch_6">
    <path d="M 72.636637 307.584 
L 77.648847 307.584 
L 77.648847 302.5152 
L 72.636637 302.5152 
z
" clip-path="url(#p225ba656f5)" style="fill: #ff0000; opacity: 0.5"/>
   </g>
   <g id="patch_7">
    <path d="M 77.648847 307.584 
L 82.661056 307.584 
L 82.661056 302.5152 
L 77.648847 302.5152 
z
" clip-path="url(#p225ba656f5)" style="fill: #ff0000; opacity: 0.5"/>
   </g>
   <g id="patch_8">
    <path d="M 82.661056 307.584 
L 87.673266 307.584 
L 87.673266 307.584 
L 82.661056 307.584 
z
" clip-path="url(#p225ba656f5)" style="fill: #ff0000; opacity: 0.5"/>
   </g>
   <g id="patch_9">
    <path d="M 87.673266 307.584 
L 92.685476 307.584 
L 92.685476 305.0496 
L 87.673266 305.0496 
z
" clip-path="url(#p225ba656f5)" style="fill: #ff0000; opacity: 0.5"/>
   </g>
   <g id="patch_10">
    <path d="M 92.685476 307.584 
L 97.697686 307.584 
L 97.697686 305.0496 
L 92.685476 305.0496 
z
" clip-path="url(#p225ba656f5)" style="fill: #ff0000; opacity: 0.5"/>
   </g>
   <g id="patch_11">
    <path d="M 97.697686 307.584 
L 102.709896 307.584 
L 102.709896 305.0496 
L 97.697686 305.0496 
z
" clip-path="url(#p225ba656f5)" style="fill: #ff0000; opacity: 0.5"/>
   </g>
   <g id="patch_12">
    <path d="M 102.709896 307.584 
L 107.722105 307.584 
L 107.722105 305.0496 
L 102.709896 305.0496 
z
" clip-path="url(#p225ba656f5)" style="fill: #ff0000; opacity: 0.5"/>
   </g>
   <g id="patch_13">
    <path d="M 72.48 307.584 
L 88.848 307.584 
L 88.848 292.3776 
L 72.48 292.3776 
z
" clip-path="url(#p225ba656f5)" style="fill: #0000ff; opacity: 0.5"/>
   </g>
   <g id="patch_14">
    <path d="M 88.848 307.584 
L 105.216 307.584 
L 105.216 284.7744 
L 88.848 284.7744 
z
" clip-path="url(#p225ba656f5)" style="fill: #0000ff; opacity: 0.5"/>
   </g>
   <g id="patch_15">
    <path d="M 105.216 307.584 
L 121.584 307.584 
L 121.584 277.1712 
L 105.216 277.1712 
z
" clip-path="url(#p225ba656f5)" style="fill: #0000ff; opacity: 0.5"/>
   </g>
   <g id="patch_16">
    <path d="M 121.584 307.584 
L 137.952 307.584 
L 137.952 254.3616 
L 121.584 254.3616 
z
" clip-path="url(#p225ba656f5)" style="fill: #0000ff; opacity: 0.5"/>
   </g>
   <g id="patch_17">
    <path d="M 137.952 307.584 
L 154.32 307.584 
L 154.32 251.8272 
L 137.952 251.8272 
z
" clip-path="url(#p225ba656f5)" style="fill: #0000ff; opacity: 0.5"/>
   </g>
   <g id="patch_18">
    <path d="M 154.32 307.584 
L 170.688 307.584 
L 170.688 256.896 
L 154.32 256.896 
z
" clip-path="url(#p225ba656f5)" style="fill: #0000ff; opacity: 0.5"/>
   </g>
   <g id="patch_19">
    <path d="M 170.688 307.584 
L 187.056 307.584 
L 187.056 267.0336 
L 170.688 267.0336 
z
" clip-path="url(#p225ba656f5)" style="fill: #0000ff; opacity: 0.5"/>
   </g>
   <g id="patch_20">
    <path d="M 187.056 307.584 
L 203.424 307.584 
L 203.424 292.3776 
L 187.056 292.3776 
z
" clip-path="url(#p225ba656f5)" style="fill: #0000ff; opacity: 0.5"/>
   </g>
   <g id="patch_21">
    <path d="M 203.424 307.584 
L 219.792 307.584 
L 219.792 302.5152 
L 203.424 302.5152 
z
" clip-path="url(#p225ba656f5)" style="fill: #0000ff; opacity: 0.5"/>
   </g>
   <g id="patch_22">
    <path d="M 219.792 307.584 
L 236.16 307.584 
L 236.16 302.5152 
L 219.792 302.5152 
z
" clip-path="url(#p225ba656f5)" style="fill: #0000ff; opacity: 0.5"/>
   </g>
   <g id="matplotlib.axis_1">
    <g id="xtick_1">
     <g id="line2d_1">
      <defs>
       <path id="mfc8e778d44" d="M 0 0 
L 0 3.5 
" style="stroke: #000000; stroke-width: 0.8"/>
      </defs>
      <g>
       <use xlink:href="#mfc8e778d44" x="57.6" y="307.584" style="stroke: #000000; stroke-width: 0.8"/>
      </g>
     </g>
     <g id="text_1">
      <!-- 0.0 -->
      <g transform="translate(47.694609 324.321812) scale(0.13 -0.13)">
       <defs>
        <path id="IPAexGothic-30" d="M 2038 4725 
Q 2881 4725 3334 3944 
Q 3694 3325 3694 2344 
Q 3694 1372 3334 741 
Q 2888 -31 2016 -31 
Q 1147 -31 700 741 
Q 341 1372 341 2350 
Q 341 3713 1000 4334 
Q 1419 4725 2038 4725 
z
M 2016 4266 
Q 1516 4266 1228 3759 
Q 934 3247 934 2344 
Q 934 1456 1222 947 
Q 1513 447 2016 447 
Q 2619 447 2909 1153 
Q 3100 1622 3100 2375 
Q 3100 3256 2806 3759 
Q 2509 4266 2016 4266 
z
" transform="scale(0.015625)"/>
        <path id="IPAexGothic-2e" d="M 1184 63 
L 494 63 
L 494 753 
L 1184 753 
L 1184 63 
z
" transform="scale(0.015625)"/>
       </defs>
       <use xlink:href="#IPAexGothic-30"/>
       <use xlink:href="#IPAexGothic-2e" x="62.988281"/>
       <use xlink:href="#IPAexGothic-30" x="89.404297"/>
      </g>
     </g>
    </g>
    <g id="xtick_2">
     <g id="line2d_2">
      <g>
       <use xlink:href="#mfc8e778d44" x="129.024" y="307.584" style="stroke: #000000; stroke-width: 0.8"/>
      </g>
     </g>
     <g id="text_2">
      <!-- 0.2 -->
      <g transform="translate(119.118609 324.321812) scale(0.13 -0.13)">
       <defs>
        <path id="IPAexGothic-32" d="M 3659 63 
L 447 63 
L 447 594 
Q 825 1475 1894 2203 
L 2072 2322 
Q 2619 2697 2791 2906 
Q 2988 3153 2988 3444 
Q 2988 3772 2756 4003 
Q 2500 4259 2084 4259 
Q 1250 4259 991 3328 
L 497 3506 
Q 853 4725 2116 4725 
Q 2806 4725 3216 4316 
Q 3575 3947 3575 3425 
Q 3575 3038 3344 2722 
Q 3131 2416 2366 1938 
L 2231 1856 
Q 1256 1253 978 569 
L 3659 569 
L 3659 63 
z
" transform="scale(0.015625)"/>
       </defs>
       <use xlink:href="#IPAexGothic-30"/>
       <use xlink:href="#IPAexGothic-2e" x="62.988281"/>
       <use xlink:href="#IPAexGothic-32" x="89.404297"/>
      </g>
     </g>
    </g>
    <g id="xtick_3">
     <g id="line2d_3">
      <g>
       <use xlink:href="#mfc8e778d44" x="200.448" y="307.584" style="stroke: #000000; stroke-width: 0.8"/>
      </g>
     </g>
     <g id="text_3">
      <!-- 0.4 -->
      <g transform="translate(190.542609 324.321812) scale(0.13 -0.13)">
       <defs>
        <path id="IPAexGothic-34" d="M 3813 1159 
L 3059 1159 
L 3059 63 
L 2547 63 
L 2547 1159 
L 197 1159 
L 197 1672 
L 2456 4678 
L 3059 4678 
L 3059 1634 
L 3813 1634 
L 3813 1159 
z
M 2578 4109 
L 2559 4109 
Q 2278 3656 2003 3284 
L 759 1634 
L 2547 1634 
L 2547 3144 
Q 2547 3481 2578 4109 
z
" transform="scale(0.015625)"/>
       </defs>
       <use xlink:href="#IPAexGothic-30"/>
       <use xlink:href="#IPAexGothic-2e" x="62.988281"/>
       <use xlink:href="#IPAexGothic-34" x="89.404297"/>
      </g>
     </g>
    </g>
    <g id="xtick_4">
     <g id="line2d_4">
      <g>
       <use xlink:href="#mfc8e778d44" x="271.872" y="307.584" style="stroke: #000000; stroke-width: 0.8"/>
      </g>
     </g>
     <g id="text_4">
      <!-- 0.6 -->
      <g transform="translate(261.966609 324.321812) scale(0.13 -0.13)">
       <defs>
        <path id="IPAexGothic-36" d="M 1056 2328 
Q 1509 2981 2234 2981 
Q 2906 2981 3316 2513 
Q 3675 2106 3675 1522 
Q 3675 884 3272 434 
Q 2853 -31 2178 -31 
Q 1375 -31 922 581 
Q 481 1178 481 2228 
Q 481 3425 1013 4109 
Q 1494 4725 2272 4725 
Q 3191 4725 3609 4025 
L 3150 3775 
Q 2894 4266 2300 4266 
Q 1119 4266 1031 2328 
L 1056 2328 
z
M 2141 2547 
Q 1684 2547 1384 2206 
Q 1116 1900 1116 1541 
Q 1116 1156 1353 844 
Q 1672 428 2159 428 
Q 2669 428 2941 844 
Q 3125 1128 3125 1503 
Q 3125 1944 2881 2228 
Q 2600 2547 2141 2547 
z
" transform="scale(0.015625)"/>
       </defs>
       <use xlink:href="#IPAexGothic-30"/>
       <use xlink:href="#IPAexGothic-2e" x="62.988281"/>
       <use xlink:href="#IPAexGothic-36" x="89.404297"/>
      </g>
     </g>
    </g>
    <g id="xtick_5">
     <g id="line2d_5">
      <g>
       <use xlink:href="#mfc8e778d44" x="343.296" y="307.584" style="stroke: #000000; stroke-width: 0.8"/>
      </g>
     </g>
     <g id="text_5">
      <!-- 0.8 -->
      <g transform="translate(333.390609 324.321812) scale(0.13 -0.13)">
       <defs>
        <path id="IPAexGothic-38" d="M 2541 2425 
Q 3700 2031 3700 1197 
Q 3700 541 3100 197 
Q 2663 -56 2016 -56 
Q 1366 -56 928 197 
Q 347 531 347 1178 
Q 347 1988 1409 2381 
L 1409 2400 
Q 481 2734 481 3509 
Q 481 4100 981 4456 
Q 1406 4756 2019 4756 
Q 2703 4756 3131 4403 
Q 3553 4069 3553 3566 
Q 3553 2706 2541 2444 
L 2541 2425 
z
M 2022 2625 
Q 2997 2856 2997 3528 
Q 2997 3916 2675 4150 
Q 2413 4347 2016 4347 
Q 1606 4347 1331 4128 
Q 1050 3897 1050 3522 
Q 1050 3150 1350 2925 
Q 1494 2809 1722 2722 
Q 1984 2616 2022 2625 
z
M 1978 2209 
Q 922 1931 922 1216 
Q 922 775 1313 556 
Q 1606 391 2009 391 
Q 2575 391 2881 697 
Q 3106 922 3106 1250 
Q 3106 1594 2794 1850 
Q 2609 1994 2350 2100 
Q 2047 2222 1978 2209 
z
" transform="scale(0.015625)"/>
       </defs>
       <use xlink:href="#IPAexGothic-30"/>
       <use xlink:href="#IPAexGothic-2e" x="62.988281"/>
       <use xlink:href="#IPAexGothic-38" x="89.404297"/>
      </g>
     </g>
    </g>
    <g id="xtick_6">
     <g id="line2d_6">
      <g>
       <use xlink:href="#mfc8e778d44" x="414.72" y="307.584" style="stroke: #000000; stroke-width: 0.8"/>
      </g>
     </g>
     <g id="text_6">
      <!-- 1.0 -->
      <g transform="translate(404.814609 324.321812) scale(0.13 -0.13)">
       <defs>
        <path id="IPAexGothic-31" d="M 2463 63 
L 1900 63 
L 1900 4103 
Q 1372 3922 788 3797 
L 684 4231 
Q 1519 4441 2106 4731 
L 2463 4731 
L 2463 63 
z
" transform="scale(0.015625)"/>
       </defs>
       <use xlink:href="#IPAexGothic-31"/>
       <use xlink:href="#IPAexGothic-2e" x="62.988281"/>
       <use xlink:href="#IPAexGothic-30" x="89.404297"/>
      </g>
     </g>
    </g>
    <g id="text_7">
     <!-- 類似度（階級） -->
     <g transform="translate(183.66 342.02775) scale(0.15 -0.15)">
      <defs>
       <path id="IPAexGothic-985e" d="M 1575 3238 
Q 1153 2647 513 2213 
L 256 2547 
Q 953 2959 1416 3572 
L 1447 3609 
L 366 3609 
L 366 3981 
L 1575 3981 
L 1575 5313 
L 1978 5313 
L 1978 3981 
L 3109 3981 
L 3109 3609 
L 1978 3609 
L 1978 3425 
Q 2581 3147 3059 2791 
L 2809 2406 
Q 2469 2747 1978 3059 
L 1978 2388 
L 1575 2388 
L 1575 3238 
z
M 4616 4025 
L 5709 4025 
L 5709 794 
L 3400 794 
L 3400 4025 
L 4219 4025 
Q 4284 4284 4353 4659 
L 3094 4659 
L 3094 5056 
L 6022 5056 
L 6022 4659 
L 4800 4659 
Q 4797 4638 4769 4538 
Q 4719 4309 4616 4025 
z
M 5300 3653 
L 3809 3653 
L 3809 3078 
L 5300 3078 
L 5300 3653 
z
M 3809 2713 
L 3809 2138 
L 5300 2138 
L 5300 2713 
L 3809 2713 
z
M 3809 1778 
L 3809 1166 
L 5300 1166 
L 5300 1778 
L 3809 1778 
z
M 1569 1691 
L 1569 2197 
L 1991 2197 
L 1991 1691 
L 3072 1691 
L 3072 1306 
L 1978 1306 
Q 1969 1178 1938 1081 
Q 2447 744 2944 256 
L 2625 -88 
Q 2247 375 1825 719 
Q 1525 -28 678 -497 
L 384 -153 
Q 1416 338 1550 1306 
L 366 1306 
L 366 1691 
L 1569 1691 
z
M 897 4072 
Q 706 4600 500 4916 
L 884 5088 
Q 1091 4756 1300 4238 
L 897 4072 
z
M 2200 4219 
Q 2456 4659 2578 5100 
L 2994 4978 
Q 2819 4509 2541 4072 
L 2200 4219 
z
M 5753 -422 
Q 5344 47 4728 525 
L 5044 756 
Q 5566 413 6138 -116 
L 5753 -422 
z
M 2809 -178 
Q 3488 169 3981 750 
L 4338 506 
Q 3831 -88 3122 -500 
L 2809 -178 
z
" transform="scale(0.015625)"/>
       <path id="IPAexGothic-4f3c" d="M 4784 928 
Q 4128 41 2928 -428 
L 2634 -44 
Q 4134 472 4644 1594 
Q 5009 2409 5009 4250 
L 5009 4972 
L 5450 4972 
L 5450 4403 
Q 5450 2213 5009 1300 
Q 5650 688 6109 116 
L 5744 -281 
Q 5266 400 4784 928 
z
M 1509 3769 
L 1509 -447 
L 1069 -447 
L 1069 2822 
Q 813 2363 531 1972 
L 288 2363 
Q 1131 3584 1528 5319 
L 1975 5216 
Q 1753 4369 1509 3769 
z
M 2803 1447 
Q 3338 1709 4019 2113 
L 4103 1728 
Q 3172 1106 1997 550 
L 1759 984 
Q 1984 1066 2363 1234 
L 2363 4775 
L 2803 4775 
L 2803 1447 
z
M 4025 3200 
Q 3653 3863 3153 4422 
L 3513 4684 
Q 3966 4231 4422 3481 
L 4025 3200 
z
" transform="scale(0.015625)"/>
       <path id="IPAexGothic-5ea6" d="M 3516 4622 
L 5794 4622 
L 5794 4231 
L 1278 4231 
L 1278 3547 
L 2328 3547 
L 2328 4041 
L 2759 4041 
L 2759 3547 
L 4097 3547 
L 4097 4041 
L 4525 4041 
L 4525 3547 
L 5825 3547 
L 5825 3163 
L 4525 3163 
L 4525 2266 
L 2328 2266 
L 2328 3163 
L 1278 3163 
L 1278 2747 
Q 1278 1434 1131 775 
Q 1006 203 606 -441 
L 269 -50 
Q 653 541 763 1381 
Q 825 1869 825 2747 
L 825 4622 
L 3034 4622 
L 3034 5313 
L 3516 5313 
L 3516 4622 
z
M 2759 3163 
L 2759 2619 
L 4097 2619 
L 4097 3163 
L 2759 3163 
z
M 3609 263 
Q 2784 -231 1472 -494 
L 1222 -97 
Q 2444 63 3213 491 
Q 2544 909 2119 1522 
L 1575 1522 
L 1575 1900 
L 4897 1900 
L 5125 1700 
Q 4628 994 3994 516 
Q 4769 200 5925 56 
L 5638 -397 
Q 4434 -163 3609 263 
z
M 2606 1522 
Q 2984 1044 3578 716 
Q 4163 1119 4422 1522 
L 2606 1522 
z
" transform="scale(0.015625)"/>
       <path id="IPAexGothic-ff08" d="M 5419 -434 
Q 4197 769 4197 2438 
Q 4197 4097 5419 5300 
L 5919 5300 
Q 4678 4078 4678 2425 
Q 4678 788 5919 -434 
L 5419 -434 
z
" transform="scale(0.015625)"/>
       <path id="IPAexGothic-968e" d="M 2575 3150 
L 2575 5209 
L 2978 5209 
L 2978 4384 
L 3981 4384 
L 3981 4000 
L 2978 4000 
L 2978 3213 
Q 3478 3291 4009 3406 
L 4034 3053 
Q 3066 2797 2184 2675 
L 2044 3078 
Q 2113 3088 2244 3103 
Q 2391 3122 2447 3128 
L 2575 3150 
z
M 1588 3059 
Q 2191 2303 2191 1413 
Q 2191 1100 2122 919 
Q 2003 650 1613 650 
Q 1372 650 1122 691 
L 1050 1144 
Q 1309 1084 1538 1084 
Q 1763 1084 1763 1463 
Q 1763 2244 1159 3038 
Q 1519 3806 1691 4588 
L 909 4588 
L 909 -450 
L 488 -450 
L 488 4991 
L 1984 4991 
L 2209 4800 
Q 1931 3772 1588 3059 
z
M 4591 4275 
Q 5175 4438 5666 4716 
L 5959 4369 
Q 5338 4084 4591 3916 
L 4591 3378 
Q 4591 3128 5031 3128 
Q 5497 3128 5563 3225 
Q 5644 3322 5653 3866 
L 6075 3744 
Q 6047 3131 5941 2950 
Q 5794 2725 5072 2725 
Q 4594 2725 4413 2797 
Q 4188 2884 4188 3194 
L 4188 5209 
L 4591 5209 
L 4591 4275 
z
M 3619 2259 
Q 3672 2441 3728 2766 
L 4206 2681 
Q 4109 2403 4053 2259 
L 5666 2259 
L 5666 -447 
L 5238 -447 
L 5238 -122 
L 2984 -122 
L 2984 -447 
L 2556 -447 
L 2556 2259 
L 3619 2259 
z
M 2984 1888 
L 2984 1275 
L 5238 1275 
L 5238 1888 
L 2984 1888 
z
M 2984 916 
L 2984 250 
L 5238 250 
L 5238 916 
L 2984 916 
z
" transform="scale(0.015625)"/>
       <path id="IPAexGothic-7d1a" d="M 3622 2816 
Q 3594 2019 3494 1469 
Q 3284 338 2644 -513 
L 2319 -181 
Q 3003 716 3156 2059 
Q 3263 3041 3272 4525 
L 2716 4525 
L 2716 4928 
L 5050 4928 
L 5269 4728 
Q 5069 3675 4897 3128 
L 5728 3128 
Q 5547 1897 5025 997 
Q 5497 478 6138 50 
L 5825 -378 
Q 5191 125 4769 613 
Q 4269 -44 3559 -506 
L 3266 -131 
Q 4056 319 4500 953 
Q 3928 1716 3622 2816 
z
M 3650 4191 
Q 3891 2522 4738 1344 
Q 5059 1941 5209 2738 
L 4341 2738 
Q 4638 3650 4781 4525 
L 3656 4525 
L 3656 4434 
Q 3650 4409 3650 4191 
z
M 1313 3066 
Q 872 3691 444 4109 
L 744 4422 
Q 894 4263 969 4178 
Q 1341 4684 1622 5325 
L 2050 5113 
Q 1597 4363 1213 3884 
Q 1394 3656 1550 3419 
Q 1897 3922 2241 4556 
L 2638 4331 
Q 1959 3238 1378 2559 
Q 1838 2584 2400 2631 
Q 2303 2878 2159 3150 
L 2491 3309 
Q 2813 2769 3022 2069 
L 2644 1875 
Q 2591 2081 2509 2322 
Q 2328 2284 1978 2241 
L 1884 2228 
L 1884 -447 
L 1463 -447 
L 1463 2175 
L 1372 2163 
Q 1025 2122 456 2081 
L 322 2522 
Q 528 2528 925 2541 
Q 1081 2750 1313 3066 
z
M 403 213 
Q 656 884 725 1759 
L 1134 1709 
Q 1047 700 825 -19 
L 403 213 
z
M 2406 672 
Q 2253 1313 2034 1806 
L 2388 1941 
Q 2625 1509 2809 891 
L 2406 672 
z
" transform="scale(0.015625)"/>
       <path id="IPAexGothic-ff09" d="M 481 -434 
Q 1722 788 1722 2431 
Q 1722 4066 481 5300 
L 981 5300 
Q 2203 4097 2203 2431 
Q 2203 769 981 -434 
L 481 -434 
z
" transform="scale(0.015625)"/>
      </defs>
      <use xlink:href="#IPAexGothic-985e"/>
      <use xlink:href="#IPAexGothic-4f3c" x="100"/>
      <use xlink:href="#IPAexGothic-5ea6" x="200"/>
      <use xlink:href="#IPAexGothic-ff08" x="300"/>
      <use xlink:href="#IPAexGothic-968e" x="400"/>
      <use xlink:href="#IPAexGothic-7d1a" x="500"/>
      <use xlink:href="#IPAexGothic-ff09" x="600"/>
     </g>
    </g>
   </g>
   <g id="matplotlib.axis_2">
    <g id="ytick_1">
     <g id="line2d_7">
      <defs>
       <path id="m3153b70ac3" d="M 0 0 
L -3.5 0 
" style="stroke: #000000; stroke-width: 0.8"/>
      </defs>
      <g>
       <use xlink:href="#m3153b70ac3" x="57.6" y="307.584" style="stroke: #000000; stroke-width: 0.8"/>
      </g>
     </g>
     <g id="text_8">
      <!-- 0 -->
      <g transform="translate(42.412031 312.452906) scale(0.13 -0.13)">
       <use xlink:href="#IPAexGothic-30"/>
      </g>
     </g>
    </g>
    <g id="ytick_2">
     <g id="line2d_8">
      <g>
       <use xlink:href="#m3153b70ac3" x="57.6" y="256.896" style="stroke: #000000; stroke-width: 0.8"/>
      </g>
     </g>
     <g id="text_9">
      <!-- 20 -->
      <g transform="translate(34.224063 261.764906) scale(0.13 -0.13)">
       <use xlink:href="#IPAexGothic-32"/>
       <use xlink:href="#IPAexGothic-30" x="62.988281"/>
      </g>
     </g>
    </g>
    <g id="ytick_3">
     <g id="line2d_9">
      <g>
       <use xlink:href="#m3153b70ac3" x="57.6" y="206.208" style="stroke: #000000; stroke-width: 0.8"/>
      </g>
     </g>
     <g id="text_10">
      <!-- 40 -->
      <g transform="translate(34.224063 211.076906) scale(0.13 -0.13)">
       <use xlink:href="#IPAexGothic-34"/>
       <use xlink:href="#IPAexGothic-30" x="62.988281"/>
      </g>
     </g>
    </g>
    <g id="ytick_4">
     <g id="line2d_10">
      <g>
       <use xlink:href="#m3153b70ac3" x="57.6" y="155.52" style="stroke: #000000; stroke-width: 0.8"/>
      </g>
     </g>
     <g id="text_11">
      <!-- 60 -->
      <g transform="translate(34.224063 160.388906) scale(0.13 -0.13)">
       <use xlink:href="#IPAexGothic-36"/>
       <use xlink:href="#IPAexGothic-30" x="62.988281"/>
      </g>
     </g>
    </g>
    <g id="ytick_5">
     <g id="line2d_11">
      <g>
       <use xlink:href="#m3153b70ac3" x="57.6" y="104.832" style="stroke: #000000; stroke-width: 0.8"/>
      </g>
     </g>
     <g id="text_12">
      <!-- 80 -->
      <g transform="translate(34.224063 109.700906) scale(0.13 -0.13)">
       <use xlink:href="#IPAexGothic-38"/>
       <use xlink:href="#IPAexGothic-30" x="62.988281"/>
      </g>
     </g>
    </g>
    <g id="ytick_6">
     <g id="line2d_12">
      <g>
       <use xlink:href="#m3153b70ac3" x="57.6" y="54.144" style="stroke: #000000; stroke-width: 0.8"/>
      </g>
     </g>
     <g id="text_13">
      <!-- 100 -->
      <g transform="translate(26.036094 59.012906) scale(0.13 -0.13)">
       <use xlink:href="#IPAexGothic-31"/>
       <use xlink:href="#IPAexGothic-30" x="62.988281"/>
       <use xlink:href="#IPAexGothic-30" x="125.976562"/>
      </g>
     </g>
    </g>
    <g id="text_14">
     <!-- 度数 -->
     <g transform="translate(19.186094 189.528) rotate(-90) scale(0.15 -0.15)">
      <defs>
       <path id="IPAexGothic-6570" d="M 2847 1553 
Q 2741 1006 2425 534 
Q 2625 441 3091 203 
L 2809 -188 
Q 2541 0 2144 209 
Q 1569 -291 703 -500 
L 422 -125 
Q 1263 19 1747 406 
Q 1222 650 734 816 
Q 975 1172 1147 1503 
L 1172 1553 
L 359 1553 
L 359 1925 
L 1344 1925 
Q 1406 2066 1569 2475 
L 1691 2450 
L 1691 3372 
Q 1250 2738 550 2303 
L 275 2663 
Q 1019 3013 1528 3641 
L 378 3641 
L 378 4006 
L 1691 4006 
L 1691 5313 
L 2113 5313 
L 2113 4006 
L 3297 4006 
L 3297 3641 
L 2113 3641 
L 2113 3513 
Q 2659 3291 3175 2963 
L 2956 2584 
Q 2553 2922 2113 3159 
L 2113 2372 
L 1966 2372 
Q 1928 2288 1872 2141 
Q 1806 1975 1784 1925 
L 3378 1925 
L 3378 1553 
L 2847 1553 
z
M 2419 1553 
L 1613 1553 
Q 1478 1269 1313 997 
Q 1559 909 2047 703 
Q 2313 1047 2419 1553 
z
M 4363 1163 
Q 3953 1781 3738 2638 
Q 3575 2281 3428 2016 
L 3103 2406 
Q 3675 3444 3916 5291 
L 4363 5200 
Q 4284 4666 4197 4197 
L 6009 4197 
L 6009 3775 
L 5503 3775 
Q 5397 2275 4869 1191 
Q 5419 503 6144 75 
L 5822 -378 
Q 5188 106 4631 788 
Q 4113 34 3341 -463 
L 3031 -78 
Q 3888 406 4363 1163 
z
M 4588 1594 
Q 4938 2388 5059 3775 
L 4100 3775 
Q 4041 3519 3972 3288 
Q 3981 3250 3991 3194 
Q 4175 2256 4588 1594 
z
M 1003 4116 
Q 878 4544 638 4934 
L 1053 5094 
Q 1247 4788 1438 4269 
L 1003 4116 
z
M 2316 4269 
Q 2550 4688 2688 5131 
L 3128 4997 
Q 2966 4588 2675 4128 
L 2316 4269 
z
" transform="scale(0.015625)"/>
      </defs>
      <use xlink:href="#IPAexGothic-5ea6"/>
      <use xlink:href="#IPAexGothic-6570" x="100"/>
     </g>
    </g>
   </g>
   <g id="patch_23">
    <path d="M 57.6 307.584 
L 57.6 41.472 
" style="fill: none; stroke: #000000; stroke-width: 0.8; stroke-linejoin: miter; stroke-linecap: square"/>
   </g>
   <g id="patch_24">
    <path d="M 414.72 307.584 
L 414.72 41.472 
" style="fill: none; stroke: #000000; stroke-width: 0.8; stroke-linejoin: miter; stroke-linecap: square"/>
   </g>
   <g id="patch_25">
    <path d="M 57.6 307.584 
L 414.72 307.584 
" style="fill: none; stroke: #000000; stroke-width: 0.8; stroke-linejoin: miter; stroke-linecap: square"/>
   </g>
   <g id="patch_26">
    <path d="M 57.6 41.472 
L 414.72 41.472 
" style="fill: none; stroke: #000000; stroke-width: 0.8; stroke-linejoin: miter; stroke-linecap: square"/>
   </g>
   <g id="legend_1">
    <g id="patch_27">
     <path d="M 151.772344 96.643875 
L 404.22 96.643875 
Q 407.22 96.643875 407.22 93.643875 
L 407.22 51.972 
Q 407.22 48.972 404.22 48.972 
L 151.772344 48.972 
Q 148.772344 48.972 148.772344 51.972 
L 148.772344 93.643875 
Q 148.772344 96.643875 151.772344 96.643875 
z
" style="fill: #ffffff; opacity: 0.8; stroke: #cccccc; stroke-linejoin: miter"/>
    </g>
    <g id="patch_28">
     <path d="M 154.772344 66.207937 
L 184.772344 66.207937 
L 184.772344 55.707937 
L 154.772344 55.707937 
z
" style="fill: #ff0000; opacity: 0.5"/>
    </g>
    <g id="text_15">
     <!-- 全部分木の木の類似度 -->
     <g transform="translate(196.772344 66.207937) scale(0.15 -0.15)">
      <defs>
       <path id="IPAexGothic-5168" d="M 3416 2778 
L 3416 1747 
L 5284 1747 
L 5284 1338 
L 3416 1338 
L 3416 184 
L 5859 184 
L 5859 -231 
L 547 -231 
L 547 184 
L 2941 184 
L 2941 1338 
L 1116 1338 
L 1116 1747 
L 2941 1747 
L 2941 2778 
L 1666 2778 
L 1666 3091 
Q 1188 2744 597 2472 
L 316 2847 
Q 2006 3569 2888 5197 
L 3441 5197 
Q 4491 3763 6116 3041 
L 5816 2619 
Q 4231 3413 3172 4775 
Q 2603 3834 1788 3181 
L 4803 3181 
L 4803 2778 
L 3416 2778 
z
" transform="scale(0.015625)"/>
       <path id="IPAexGothic-90e8" d="M 3034 4031 
L 3028 4000 
Q 2897 3488 2675 2888 
L 3631 2888 
L 3631 2503 
L 322 2503 
L 322 2888 
L 1256 2888 
Q 1150 3450 950 4031 
L 438 4031 
L 438 4416 
L 1756 4416 
L 1756 5313 
L 2197 5313 
L 2197 4416 
L 3456 4416 
L 3456 4031 
L 3034 4031 
z
M 2594 4031 
L 1384 4031 
Q 1566 3538 1691 2888 
L 2241 2888 
Q 2463 3466 2594 4031 
z
M 3194 1863 
L 3194 -422 
L 2766 -422 
L 2766 -103 
L 1250 -103 
L 1250 -450 
L 822 -450 
L 822 1863 
L 3194 1863 
z
M 1250 1478 
L 1250 281 
L 2766 281 
L 2766 1478 
L 1250 1478 
z
M 5166 2878 
Q 5953 2066 5953 1159 
Q 5953 391 5306 391 
Q 5016 391 4584 459 
L 4528 947 
Q 4844 850 5166 850 
Q 5472 850 5472 1216 
Q 5472 2041 4669 2828 
Q 5081 3600 5300 4409 
L 4291 4409 
L 4291 -447 
L 3850 -447 
L 3850 4825 
L 5575 4825 
L 5866 4594 
Q 5563 3659 5166 2878 
z
" transform="scale(0.015625)"/>
       <path id="IPAexGothic-5206" d="M 3031 2431 
Q 2916 1378 2528 759 
Q 1991 -81 941 -469 
L 625 -53 
Q 2356 488 2541 2431 
L 1375 2431 
L 1375 2772 
Q 1044 2431 653 2156 
L 313 2534 
Q 1600 3425 2219 5056 
L 2688 4875 
Q 2200 3672 1453 2847 
L 4966 2847 
Q 4878 559 4741 94 
Q 4666 -163 4459 -250 
Q 4288 -322 3941 -322 
Q 3525 -322 2981 -263 
L 2884 256 
Q 3441 138 3844 138 
Q 4213 138 4281 438 
Q 4388 931 4472 2431 
L 3031 2431 
z
M 5747 2303 
Q 4416 3238 3506 4934 
L 3934 5113 
Q 4747 3572 6084 2747 
L 5747 2303 
z
" transform="scale(0.015625)"/>
       <path id="IPAexGothic-6728" d="M 3547 3328 
Q 4384 1728 6088 838 
L 5728 353 
Q 4134 1459 3425 2797 
L 3425 -384 
L 2931 -384 
L 2931 2731 
Q 2272 1253 731 191 
L 372 594 
Q 2013 1584 2803 3328 
L 481 3328 
L 481 3769 
L 2931 3769 
L 2931 5150 
L 3425 5150 
L 3425 3769 
L 5922 3769 
L 5922 3328 
L 3547 3328 
z
" transform="scale(0.015625)"/>
       <path id="IPAexGothic-306e" d="M 3119 469 
Q 5275 766 5275 2425 
Q 5275 3453 4413 3925 
Q 4041 4116 3547 4159 
Q 3394 2525 2850 1400 
Q 2322 306 1722 306 
Q 1384 306 1084 666 
Q 609 1244 609 2003 
Q 609 3025 1397 3794 
Q 2184 4563 3431 4563 
Q 4306 4563 4928 4122 
Q 5813 3506 5813 2425 
Q 5813 438 3431 6 
L 3119 469 
z
M 3053 4147 
Q 2378 4044 1891 3641 
Q 1097 2981 1097 1991 
Q 1097 1366 1434 978 
Q 1581 813 1719 813 
Q 2022 813 2416 1625 
Q 2909 2638 3053 4147 
z
" transform="scale(0.015625)"/>
      </defs>
      <use xlink:href="#IPAexGothic-5168"/>
      <use xlink:href="#IPAexGothic-90e8" x="100"/>
      <use xlink:href="#IPAexGothic-5206" x="200"/>
      <use xlink:href="#IPAexGothic-6728" x="300"/>
      <use xlink:href="#IPAexGothic-306e" x="400"/>
      <use xlink:href="#IPAexGothic-6728" x="500"/>
      <use xlink:href="#IPAexGothic-306e" x="600"/>
      <use xlink:href="#IPAexGothic-985e" x="700"/>
      <use xlink:href="#IPAexGothic-4f3c" x="800"/>
      <use xlink:href="#IPAexGothic-5ea6" x="900"/>
     </g>
    </g>
    <g id="patch_29">
     <path d="M 154.772344 87.793875 
L 184.772344 87.793875 
L 184.772344 77.293875 
L 154.772344 77.293875 
z
" style="fill: #0000ff; opacity: 0.5"/>
    </g>
    <g id="text_16">
     <!-- 1辺のみの部分木の木の類似度 -->
     <g transform="translate(196.772344 87.793875) scale(0.15 -0.15)">
      <defs>
       <path id="IPAexGothic-8fba" d="M 3859 4391 
Q 3853 4294 3853 4013 
Q 3825 2803 3513 1959 
Q 3247 1206 2578 597 
L 2206 903 
Q 3034 1625 3256 2778 
Q 3378 3384 3397 4391 
L 2272 4391 
L 2272 4819 
L 5675 4819 
Q 5628 1822 5447 1141 
Q 5309 647 4641 647 
Q 4241 647 3822 691 
L 3744 1184 
Q 4175 1116 4581 1116 
Q 4938 1116 5003 1422 
Q 5159 2200 5197 4122 
L 5203 4391 
L 3859 4391 
z
M 1825 800 
Q 2078 506 2388 372 
Q 2922 147 4172 147 
Q 5009 147 6119 222 
Q 6003 9 5944 -263 
Q 4856 -294 4359 -294 
Q 3063 -294 2547 -134 
Q 1959 41 1606 506 
Q 1197 3 659 -444 
L 366 44 
Q 875 344 1372 775 
L 1372 2303 
L 397 2303 
L 397 2731 
L 1825 2731 
L 1825 800 
z
M 1594 3609 
Q 1206 4138 600 4684 
L 941 4978 
Q 1466 4569 1950 3963 
L 1594 3609 
z
" transform="scale(0.015625)"/>
       <path id="IPAexGothic-307f" d="M 1291 4416 
Q 2209 4456 3341 4647 
L 3666 4409 
Q 3478 3597 3134 2703 
Q 3959 2575 4581 2300 
Q 4669 2759 4678 3488 
L 5163 3381 
Q 5134 2672 5016 2106 
Q 5519 1856 6016 1519 
L 5722 1081 
Q 5184 1459 4888 1613 
Q 4572 441 3456 -238 
L 3072 109 
Q 4150 678 4472 1831 
Q 3706 2200 2969 2284 
Q 2038 200 1319 200 
Q 1013 200 775 525 
Q 569 819 569 1197 
Q 569 1756 1081 2172 
Q 1681 2647 2663 2716 
Q 2900 3313 3084 4159 
Q 2278 4022 1447 3956 
L 1291 4416 
z
M 2481 2291 
Q 1644 2206 1241 1734 
Q 1038 1494 1038 1178 
Q 1038 1019 1100 897 
Q 1188 706 1338 706 
Q 1513 706 1797 1097 
Q 2131 1534 2481 2291 
z
" transform="scale(0.015625)"/>
      </defs>
      <use xlink:href="#IPAexGothic-31"/>
      <use xlink:href="#IPAexGothic-8fba" x="62.988281"/>
      <use xlink:href="#IPAexGothic-306e" x="162.988281"/>
      <use xlink:href="#IPAexGothic-307f" x="262.988281"/>
      <use xlink:href="#IPAexGothic-306e" x="362.988281"/>
      <use xlink:href="#IPAexGothic-90e8" x="462.988281"/>
      <use xlink:href="#IPAexGothic-5206" x="562.988281"/>
      <use xlink:href="#IPAexGothic-6728" x="662.988281"/>
      <use xlink:href="#IPAexGothic-306e" x="762.988281"/>
      <use xlink:href="#IPAexGothic-6728" x="862.988281"/>
      <use xlink:href="#IPAexGothic-306e" x="962.988281"/>
      <use xlink:href="#IPAexGothic-985e" x="1062.988281"/>
      <use xlink:href="#IPAexGothic-4f3c" x="1162.988281"/>
      <use xlink:href="#IPAexGothic-5ea6" x="1262.988281"/>
     </g>
    </g>
   </g>
  </g>
 </g>
 <defs>
  <clipPath id="p225ba656f5">
   <rect x="57.6" y="41.472" width="357.12" height="266.112"/>
  </clipPath>
 </defs>
</svg>
